<svg id="NewGroup1-34" xmlns="http://www.w3.org/2000/svg" width="39.785" height="32.846" viewBox="0 0 39.785 32.846">
  <g id="Group_582" data-name="Group 582" transform="translate(0 0)">
    <path id="Path_5166" data-name="Path 5166" d="M561.353,355.353a14.443,14.443,0,0,1-14.013-10.969h2.1a.644.644,0,0,0,.566-.964l-6.211-10.739a.862.862,0,0,0-1.5,0L536.08,343.42a.644.644,0,0,0,.566.964H539.4a18.193,18.193,0,0,0,36.38-.5c0-.52-.031-1.04-.061-1.56a14.45,14.45,0,0,1-14.365,13.034Z" transform="translate(-535.994 -329.224)" fill="#11182d"/>
    <path id="Path_5167" data-name="Path 5167" d="M552.728,330.27a.686.686,0,0,0-.688.688v2.524a.686.686,0,0,0,.688.689h.046a.686.686,0,0,0,.688-.689v-2.524a.686.686,0,0,0-.688-.688Z" transform="translate(-527.492 -330.27)" fill="#11182d"/>
    <path id="Path_5168" data-name="Path 5168" d="M556.327,330.8a.691.691,0,0,0-.9.352l-.994,2.325a.685.685,0,0,0,.367.9l.046.015a.685.685,0,0,0,.9-.367l.994-2.325a.685.685,0,0,0-.367-.9Z" transform="translate(-526.256 -330.019)" fill="#11182d"/>
    <path id="Path_5169" data-name="Path 5169" d="M560.585,334.9l-2.371.887a.684.684,0,0,0-.4.887l.015.046a.684.684,0,0,0,.887.4l2.371-.887a.684.684,0,0,0,.4-.887l-.015-.046a.69.69,0,0,0-.887-.4Z" transform="translate(-524.456 -327.843)" fill="#11182d"/>
    <path id="Path_5170" data-name="Path 5170" d="M562.161,338.628v-.046a.686.686,0,0,0-.658-.719l-2.524-.122a.686.686,0,0,0-.719.658v.046a.686.686,0,0,0,.658.719l2.524.122a.686.686,0,0,0,.719-.658Z" transform="translate(-524.196 -326.312)" fill="#11182d"/>
    <path id="Path_5171" data-name="Path 5171" d="M561.392,342.2l.015-.046a.692.692,0,0,0-.321-.918l-2.279-1.1a.692.692,0,0,0-.918.321l-.015.046a.692.692,0,0,0,.321.918l2.279,1.1a.706.706,0,0,0,.918-.321Z" transform="translate(-524.437 -325.08)" fill="#11182d"/>
    <path id="Path_5172" data-name="Path 5172" d="M558.3,345.1a.666.666,0,0,0,.964.061l.031-.031a.666.666,0,0,0,.061-.964l-1.652-1.9a.666.666,0,0,0-.964-.061l-.031.031a.666.666,0,0,0-.061.964l1.652,1.9Z" transform="translate(-525.143 -324.037)" fill="#11182d"/>
    <path id="Path_5173" data-name="Path 5173" d="M555,343.34l-.046.015a.7.7,0,0,0-.444.857l.78,2.4a.7.7,0,0,0,.857.444l.046-.015a.7.7,0,0,0,.444-.857l-.78-2.4a.688.688,0,0,0-.857-.444Z" transform="translate(-526.199 -323.361)" fill="#11182d"/>
    <path id="Path_5174" data-name="Path 5174" d="M552.97,343.7a.7.7,0,0,0-.75.612l-.23,2.509a.7.7,0,0,0,.612.75h.046a.7.7,0,0,0,.75-.612l.229-2.509a.7.7,0,0,0-.612-.75Z" transform="translate(-527.519 -323.155)" fill="#11182d"/>
    <path id="Path_5175" data-name="Path 5175" d="M551.271,343.22a.684.684,0,0,0-.933.275l-1.209,2.218a.684.684,0,0,0,.275.933l.046.031a.684.684,0,0,0,.933-.275l1.209-2.218a.684.684,0,0,0-.275-.933l-.046-.031Z" transform="translate(-529.079 -323.454)" fill="#11182d"/>
    <path id="Path_5176" data-name="Path 5176" d="M548.893,341.863l-1.973,1.576a.681.681,0,0,0-.107.964l.031.046a.681.681,0,0,0,.964.107l1.973-1.576a.681.681,0,0,0,.107-.964l-.031-.046a.681.681,0,0,0-.964-.107Z" transform="translate(-530.342 -324.208)" fill="#11182d"/>
    <path id="Path_5177" data-name="Path 5177" d="M562.034,332.714l-9.577,6.578a1.63,1.63,0,1,0,2.142,2.371l7.8-8.552a.277.277,0,0,0-.367-.4Z" transform="translate(-527.695 -328.997)" fill="#11182d"/>
  </g>
</svg>
