<svg id="NewGroup1-25" xmlns="http://www.w3.org/2000/svg" width="39.901" height="29.665" viewBox="0 0 39.901 29.665">
  <g id="Group_1106" data-name="Group 1106" transform="translate(0 0)">
    <path id="Path_9759" data-name="Path 9759" d="M444.261,437.163a3.4,3.4,0,1,0-3.111-3.386,3.259,3.259,0,0,0,3.111,3.386Z" transform="translate(-437.856 -430.276)" fill="#11182d"/>
    <path id="Path_9760" data-name="Path 9760" d="M439,437.628l.659,6.436a.7.7,0,0,0,.7.7H442l-.659-4.6a.322.322,0,0,1,.644,0l.659,4.6H448.1l.659-4.6a.322.322,0,1,1,.643,0l-.659,4.6h1.64a.7.7,0,0,0,.7-.7l.659-6.436a1.385,1.385,0,0,0-.95-1.318l-3.019-.981-1.869,3.647.153-1.563-.291-.781a.378.378,0,0,1,.031-.337l.49-.858a.069.069,0,0,0-.061-.107h-1.655a.069.069,0,0,0-.061.107l.49.858a.434.434,0,0,1,.031.337l-.291.781.153,1.563-1.869-3.647-3.019.981A1.379,1.379,0,0,0,439,437.628Z" transform="translate(-439 -427.647)" fill="#11182d"/>
    <path id="Path_9761" data-name="Path 9761" d="M458.85,441.566a3.122,3.122,0,1,0,3.111-3.386,3.259,3.259,0,0,0-3.111,3.386Z" transform="translate(-428.434 -426.13)" fill="#11182d"/>
    <path id="Path_9762" data-name="Path 9762" d="M468.457,444.111l-3.019-.981-1.869,3.647.153-1.563-.291-.781a.377.377,0,0,1,.031-.337l.49-.858a.069.069,0,0,0-.061-.107h-1.655a.069.069,0,0,0-.061.107l.49.858a.434.434,0,0,1,.031.337l-.291.781.153,1.563-1.869-3.647-3.019.981a1.385,1.385,0,0,0-.95,1.318l.659,6.436a.7.7,0,0,0,.7.7h1.64l-.659-4.6a.322.322,0,1,1,.643,0l.659,4.6h5.455l.659-4.6a.322.322,0,0,1,.644,0l-.659,4.6h1.64a.7.7,0,0,0,.7-.7l.659-6.436a1.53,1.53,0,0,0-1.011-1.318Z" transform="translate(-429.568 -423.495)" fill="#11182d"/>
    <path id="Path_9763" data-name="Path 9763" d="M444.213,448.259V443.4a.781.781,0,0,0-1.563,0v4.857a3.459,3.459,0,0,0,3.463,3.463h10.741v1.318a.4.4,0,0,0,.6.337l3.647-2.115a.4.4,0,0,0,0-.69l-3.647-2.115a.4.4,0,0,0-.6.337v1.318H446.113a1.833,1.833,0,0,1-1.9-1.854Z" transform="translate(-437.057 -423.767)" fill="#11182d"/>
    <path id="Path_9764" data-name="Path 9764" d="M452.315,430.368l-3.647,2.115a.4.4,0,0,0,0,.69l3.647,2.115a.4.4,0,0,0,.6-.337v-1.318h10.435a2.377,2.377,0,0,1,2.375,2.375v3.172a.781.781,0,0,0,1.563,0v-3.172a3.937,3.937,0,0,0-3.938-3.938H452.912v-1.318a.41.41,0,0,0-.6-.383Z" transform="translate(-433.958 -430.316)" fill="#11182d"/>
    <path id="Path_9765" data-name="Path 9765" d="M454.523,448.884a6.082,6.082,0,0,0,6.068-6.068.782.782,0,1,0-1.563,0,4.49,4.49,0,1,1-5.531-4.367l.061.751a.173.173,0,0,0,.261.123l2.635-1.854a.154.154,0,0,0-.031-.276l-2.927-1.348a.164.164,0,0,0-.23.169l.077.873a6.057,6.057,0,0,0,1.18,12Z" transform="translate(-433.959 -427.38)" fill="#11182d"/>
  </g>
</svg>
