<svg id="NewGroupe43_1_" xmlns="http://www.w3.org/2000/svg" width="39.776" height="33.014" viewBox="0 0 39.776 33.014">
  <g id="NewGroup1-6" transform="translate(0 0)">
    <g id="Group_1144" data-name="Group 1144">
      <path id="Path_10077" data-name="Path 10077" d="M348,634.262c0,1.943,6.976,3.5,15.574,3.5s15.574-1.576,15.574-3.5V630.82a14.108,14.108,0,0,1-5.569,1.9,63.314,63.314,0,0,1-20.01,0,14.108,14.108,0,0,1-5.569-1.9v3.442Z" transform="translate(-348 -625.297)" fill="#11182d"/>
      <path id="Path_10078" data-name="Path 10078" d="M348,638.082c0,1.943,6.976,3.5,15.574,3.5,1.132,0,2.234-.031,3.289-.076A11.607,11.607,0,0,1,370.29,637a66.168,66.168,0,0,1-6.716.336,57.668,57.668,0,0,1-10.005-.8,14.106,14.106,0,0,1-5.569-1.9v3.442Z" transform="translate(-348 -623.273)" fill="#11182d"/>
      <path id="Path_10079" data-name="Path 10079" d="M348,641.917c0,1.943,6.976,3.5,15.574,3.5.841,0,1.652-.015,2.448-.046a13.29,13.29,0,0,1-.077-1.362,11.382,11.382,0,0,1,.367-2.907c-.9.031-1.805.046-2.738.046a57.661,57.661,0,0,1-10.005-.8,14.105,14.105,0,0,1-5.569-1.9v3.458Z" transform="translate(-348 -621.249)" fill="#11182d"/>
      <path id="Path_10080" data-name="Path 10080" d="M363.574,634.217a56.262,56.262,0,0,0,9.791-.78c3.534-.643,5.783-1.622,5.783-2.723,0-1.943-6.976-3.5-15.574-3.5S348,628.786,348,630.713c0,1.1,2.264,2.08,5.783,2.723a56.133,56.133,0,0,0,9.791.78Z" transform="translate(-348 -627.21)" fill="#11182d"/>
      <path id="Path_10081" data-name="Path 10081" d="M369.866,641.223a2.373,2.373,0,0,0-.734-.49,2.227,2.227,0,0,0-2.509.5,2.39,2.39,0,0,0-.642,1.637,2.41,2.41,0,0,0,.168.887,2.351,2.351,0,0,0,.474.719,2.27,2.27,0,0,0,1.622.673,4.042,4.042,0,0,0,.428-.031A1.508,1.508,0,0,0,369.1,645l-.291-.275a.92.92,0,0,1-.168-.214.511.511,0,0,1-.046-.23.636.636,0,0,1,.2-.474.67.67,0,0,1,.49-.2.661.661,0,0,1,.214.061.669.669,0,0,1,.229.153l.352.382a2.282,2.282,0,0,0,.26-2.249,2.031,2.031,0,0,0-.474-.734Z" transform="translate(-338.473 -620.142)" fill="#11182d"/>
      <path id="Path_10082" data-name="Path 10082" d="M375.5,648.822a.623.623,0,0,1-.184-.459v-5.584a.635.635,0,1,1,1.27,0v4.926h1.851a.627.627,0,0,1,.642.643.588.588,0,0,1-.184.444.622.622,0,0,1-.459.184h-2.494a.49.49,0,0,1-.444-.153Zm-1.01-2a3.446,3.446,0,0,1-.612,1.04l.352.352a.6.6,0,0,1,.153.245c.015.076.031.153.046.214a.6.6,0,0,1-.2.444.663.663,0,0,1-.459.2.579.579,0,0,1-.428-.184l-.428-.413a4.6,4.6,0,0,1-.841.336,3.192,3.192,0,0,1-.933.122,3.664,3.664,0,0,1-1.407-.275,3.471,3.471,0,0,1-1.147-.75,3.929,3.929,0,0,1-.78-1.132,3.544,3.544,0,0,1-.291-1.392,3.459,3.459,0,0,1,.275-1.377,3.632,3.632,0,0,1,.75-1.147,3.7,3.7,0,0,1,1.132-.8,3.313,3.313,0,0,1,1.407-.291,3.454,3.454,0,0,1,1.438.291,3.535,3.535,0,0,1,1.163.78,3.515,3.515,0,0,1,1.04,2.524,4.346,4.346,0,0,1-.23,1.209Zm-7.71,1.147a1.887,1.887,0,0,1-.49.643,1.966,1.966,0,0,1-.673.382,2.579,2.579,0,0,1-.765.122,2.311,2.311,0,0,1-.857-.168,2.168,2.168,0,0,1-.7-.428,1.891,1.891,0,0,1-.474-.581,1.285,1.285,0,0,1-.184-.643.553.553,0,0,1,.2-.474.667.667,0,0,1,.444-.168.759.759,0,0,1,.4.122.548.548,0,0,1,.229.382.674.674,0,0,0,.321.49,1.13,1.13,0,0,0,.643.184.928.928,0,0,0,.566-.184.681.681,0,0,0,.26-.581.907.907,0,0,0-.138-.52,1.349,1.349,0,0,0-.367-.352,2.951,2.951,0,0,0-.474-.275,3.075,3.075,0,0,1-.49-.275,3.2,3.2,0,0,1-.444-.352,2.656,2.656,0,0,1-.383-.444,1.891,1.891,0,0,1-.275-.52,1.861,1.861,0,0,1-.107-.581,1.709,1.709,0,0,1,.168-.765,1.9,1.9,0,0,1,.428-.551,1.77,1.77,0,0,1,.6-.337,1.976,1.976,0,0,1,.658-.107,2.039,2.039,0,0,1,.658.107,1.84,1.84,0,0,1,1.01.826,1.341,1.341,0,0,1,.168.643.658.658,0,0,1-.184.474.581.581,0,0,1-.459.2.684.684,0,0,1-.428-.138.589.589,0,0,1-.2-.459.359.359,0,0,0-.2-.291.806.806,0,0,0-.352-.092.5.5,0,0,0-.4.138.449.449,0,0,0-.138.336.7.7,0,0,0,.122.413,1.112,1.112,0,0,0,.306.291c.122.077.26.153.4.23a3.287,3.287,0,0,1,.4.214,3.817,3.817,0,0,1,.566.413,2.728,2.728,0,0,1,.459.489,2.635,2.635,0,0,1,.306.581,1.857,1.857,0,0,1,.107.658,2.7,2.7,0,0,1-.23.948ZM381.1,645.64a10.25,10.25,0,1,0-10.25,10.25,10.251,10.251,0,0,0,10.25-10.25Z" transform="translate(-341.324 -622.876)" fill="#11182d"/>
    </g>
  </g>
</svg>
