<svg xmlns="http://www.w3.org/2000/svg" width="46.576" height="39.084" viewBox="0 0 46.576 39.084">
  <g id="NewGroupe29_1_" transform="translate(0)">
    <g id="NewGroup1-20" transform="translate(0 0)">
      <g id="Group_1220" data-name="Group 1220">
        <path id="Path_10836" data-name="Path 10836" d="M930.924,449.019a1.6,1.6,0,0,1-1.6,1.595H911.247a1.6,1.6,0,0,1-1.6-1.595V447.98H897v2.813a2.44,2.44,0,0,0,2.437,2.437h41.7a2.44,2.44,0,0,0,2.437-2.437V447.98h-12.67v1.039Z" transform="translate(-897 -414.146)" fill="#11182d"/>
        <path id="Path_10837" data-name="Path 10837" d="M925.185,441.949h-3.728v-2.634h3.728v2.634Zm0,3.942a.463.463,0,0,1-.466.466h-3.279v-2.383h3.728v1.917Zm-5.735-3.942h-3.369v-2.634h3.369v2.634Zm0,4.391h-3.369v-2.383h3.369v2.383Zm-5.376-4.391H910.2l-.627-2.634h4.5v2.634Zm0,4.391H911.6a.462.462,0,0,1-.448-.341l-.484-2.043h3.4v2.383Zm13.118-.448v-8.817h.735a1,1,0,1,0,0-2.007h-1.738a1,1,0,0,0-1,1v1.237h-15.86a1.051,1.051,0,0,0-.233.036l-1.344-5.681v-.018a3.375,3.375,0,0,0-3.28-2.545h-2.115a1,1,0,0,0,0,2.007h2.115a1.362,1.362,0,0,1,1.326,1.039l3.387,14.354v.018a2.47,2.47,0,0,0,2.383,1.864H924.7a2.52,2.52,0,0,0,2.491-2.491Z" transform="translate(-893.555 -429.1)" fill="#11182d"/>
        <path id="Path_10838" data-name="Path 10838" d="M915.713,443.219a.914.914,0,1,1-.914-.914.918.918,0,0,1,.914.914Zm-3.853,0a2.939,2.939,0,1,0,2.939-2.939,2.941,2.941,0,0,0-2.939,2.939Z" transform="translate(-885.23 -420.245)" fill="#11182d"/>
        <path id="Path_10839" data-name="Path 10839" d="M910.4,443.219a.914.914,0,1,1-.914-.914.918.918,0,0,1,.914.914Zm-3.853,0a2.939,2.939,0,1,0,2.939-2.939,2.941,2.941,0,0,0-2.939,2.939Z" transform="translate(-889.436 -420.245)" fill="#11182d"/>
        <path id="Path_10840" data-name="Path 10840" d="M902.084,430.79h-.072a4.038,4.038,0,0,0-4.032,4.032v25.429h43.064V434.822a4.038,4.038,0,0,0-4.032-4.032H934.09a.719.719,0,0,0-.717.717v1.129a.719.719,0,0,0,.717.717h3.136a1.92,1.92,0,0,1,1.918,1.918v21.379H899.88V435.288a1.92,1.92,0,0,1,1.917-1.918h.287a.661.661,0,0,0,.663-.663v-1.254a.662.662,0,0,0-.663-.663Z" transform="translate(-896.224 -427.761)" fill="#11182d"/>
        <path id="Path_10841" data-name="Path 10841" d="M899.91,434.8v16.773h2.455a.983.983,0,0,0,.986-.986V435.8a.983.983,0,0,0-.986-.986H899.91Z" transform="translate(-894.695 -424.585)" fill="#11182d"/>
        <path id="Path_10842" data-name="Path 10842" d="M921.711,451.573V434.8h-2.455a.983.983,0,0,0-.986.986V450.57a.983.983,0,0,0,.986.986h2.455Z" transform="translate(-880.152 -424.585)" fill="#11182d"/>
      </g>
    </g>
  </g>
</svg>
