<svg xmlns="http://www.w3.org/2000/svg" width="46.286" height="38.843" viewBox="0 0 46.286 38.843">
  <g id="NewGroupe29_1_" transform="translate(0)">
    <g id="NewGroup1-20" transform="translate(0 0)">
      <g id="Group_1220" data-name="Group 1220">
        <path id="Path_10836" data-name="Path 10836" d="M930.713,449.013a1.589,1.589,0,0,1-1.585,1.585h-17.97a1.589,1.589,0,0,1-1.585-1.585V447.98H897v2.8a2.424,2.424,0,0,0,2.422,2.422h41.442a2.425,2.425,0,0,0,2.422-2.422v-2.8H930.7v1.033Z" transform="translate(-897 -414.356)" fill="#11182d"/>
        <path id="Path_10837" data-name="Path 10837" d="M925.037,441.869h-3.7v-2.618h3.7v2.618Zm0,3.918a.46.46,0,0,1-.463.463h-3.259v-2.369h3.7v1.906Zm-5.7-3.918h-3.348v-2.618h3.348v2.618Zm0,4.363h-3.348v-2.369h3.348v2.369Zm-5.343-4.363h-3.847l-.623-2.618h4.47v2.618Zm0,4.363h-2.458a.46.46,0,0,1-.445-.338l-.481-2.03h3.384v2.369Zm13.036-.445v-8.762h.73a1,1,0,1,0,0-1.995h-1.727a1,1,0,0,0-1,1v1.229H909.275a1.044,1.044,0,0,0-.232.036l-1.336-5.646v-.018a3.353,3.353,0,0,0-3.259-2.529h-2.1a1,1,0,1,0,0,1.995h2.1a1.354,1.354,0,0,1,1.318,1.033l3.366,14.265v.018a2.455,2.455,0,0,0,2.369,1.852h13.054a2.5,2.5,0,0,0,2.475-2.475Z" transform="translate(-893.603 -429.1)" fill="#11182d"/>
        <path id="Path_10838" data-name="Path 10838" d="M915.689,443.2a.908.908,0,1,1-.908-.908.912.912,0,0,1,.908.908Zm-3.829,0a2.921,2.921,0,1,0,2.921-2.921,2.922,2.922,0,0,0-2.921,2.921Z" transform="translate(-885.396 -420.369)" fill="#11182d"/>
        <path id="Path_10839" data-name="Path 10839" d="M910.379,443.2a.908.908,0,1,1-.908-.908.912.912,0,0,1,.908.908Zm-3.829,0a2.921,2.921,0,1,0,2.921-2.921,2.923,2.923,0,0,0-2.921,2.921Z" transform="translate(-889.542 -420.369)" fill="#11182d"/>
        <path id="Path_10840" data-name="Path 10840" d="M902.058,430.79h-.071a4.013,4.013,0,0,0-4.007,4.007v25.272h42.8V434.8a4.013,4.013,0,0,0-4.007-4.007h-2.9a.715.715,0,0,0-.712.712v1.122a.714.714,0,0,0,.712.712h3.116a1.908,1.908,0,0,1,1.906,1.906v21.247h-39.02V435.26a1.908,1.908,0,0,1,1.906-1.906h.285a.657.657,0,0,0,.659-.659v-1.247a.658.658,0,0,0-.659-.659Z" transform="translate(-896.235 -427.78)" fill="#11182d"/>
        <path id="Path_10841" data-name="Path 10841" d="M899.91,434.8v16.67h2.44a.977.977,0,0,0,.979-.98V435.8a.977.977,0,0,0-.979-.979h-2.44Z" transform="translate(-894.727 -424.648)" fill="#11182d"/>
        <path id="Path_10842" data-name="Path 10842" d="M921.689,451.47V434.8h-2.44a.977.977,0,0,0-.979.98v14.693a.977.977,0,0,0,.979.979h2.44Z" transform="translate(-880.39 -424.648)" fill="#11182d"/>
      </g>
    </g>
  </g>
</svg>
