<svg id="NewGroupe32_1_" xmlns="http://www.w3.org/2000/svg" width="54.764" height="38.166" viewBox="0 0 54.764 38.166">
  <g id="NewGroup1-17" transform="translate(0 0)">
    <g id="Group_1226" data-name="Group 1226">
      <path id="Path_10884" data-name="Path 10884" d="M304.655,543.48H262.277L256,549.357h54.764Z" transform="translate(-256 -514.96)" fill="#11182d"/>
      <path id="Path_10885" data-name="Path 10885" d="M310.764,546.86H256v.758a1.78,1.78,0,0,0,1.769,1.769h51.225a1.78,1.78,0,0,0,1.769-1.769v-.758Z" transform="translate(-256 -511.221)" fill="#11182d"/>
      <path id="Path_10886" data-name="Path 10886" d="M299.894,553.678H260.4V531.667h39.493v22.011Zm1.453-21.843a1.888,1.888,0,0,0-1.9-1.9H260.886a1.888,1.888,0,0,0-1.9,1.9v25.086h42.379V531.836Z" transform="translate(-252.692 -529.94)" fill="#11182d"/>
      <path id="Path_10887" data-name="Path 10887" d="M288.219,536.515l-12.87-4.255-12.869,4.255,12.869,4.255Z" transform="translate(-248.831 -527.373)" fill="#11182d"/>
      <path id="Path_10888" data-name="Path 10888" d="M264.46,535.48v7.751a1.133,1.133,0,0,0,1.137,1.137h15.06a1.133,1.133,0,0,0,1.137-1.137V535.5l-8.657,2.907-8.678-2.928Z" transform="translate(-246.641 -523.811)" fill="#11182d"/>
      <path id="Path_10889" data-name="Path 10889" d="M275.345,539.05v-4.17l-1.074.358v3.812a1.35,1.35,0,0,0-.8,1.222,1.327,1.327,0,0,0,2.654,0,1.3,1.3,0,0,0-.779-1.222Z" transform="translate(-236.673 -524.475)" fill="#11182d"/>
    </g>
  </g>
</svg>
