<svg xmlns="http://www.w3.org/2000/svg" width="54.43" height="39.932" viewBox="0 0 54.43 37.932">
  <g id="Group_1263" data-name="Group 1263" transform="translate(-131.171 -445.005)">
    <g id="Group_1262" data-name="Group 1262" transform="translate(131.171 445.005)">
      <g id="NewGroupe32_1_" transform="translate(0 0)">
        <g id="NewGroup1-17" transform="translate(0 0)">
          <g id="Group_1226" data-name="Group 1226">
            <path id="Path_10884" data-name="Path 10884" d="M304.359,543.48h-42.12L256,549.321h54.43Z" transform="translate(-256 -515.135)" fill="#11182d"/>
            <path id="Path_10885" data-name="Path 10885" d="M310.43,546.86H256v.753a1.769,1.769,0,0,0,1.759,1.759h50.913a1.769,1.769,0,0,0,1.759-1.759v-.753Z" transform="translate(-256 -511.44)" fill="#11182d"/>
            <path id="Path_10886" data-name="Path 10886" d="M299.645,553.533H260.393V531.657h39.252v21.876Zm1.444-21.709a1.876,1.876,0,0,0-1.884-1.884H260.874a1.876,1.876,0,0,0-1.884,1.884v24.932h42.12V531.824Z" transform="translate(-252.731 -529.94)" fill="#11182d"/>
            <path id="Path_10887" data-name="Path 10887" d="M288.062,536.489l-12.791-4.229-12.791,4.229,12.791,4.229Z" transform="translate(-248.914 -527.403)" fill="#11182d"/>
            <path id="Path_10888" data-name="Path 10888" d="M264.46,535.48v7.7a1.126,1.126,0,0,0,1.13,1.13h14.968a1.126,1.126,0,0,0,1.13-1.13V535.5l-8.6,2.889-8.625-2.91Z" transform="translate(-246.749 -523.883)" fill="#11182d"/>
            <path id="Path_10889" data-name="Path 10889" d="M275.333,539.025V534.88l-1.068.356v3.789a1.341,1.341,0,0,0-.8,1.214,1.319,1.319,0,1,0,2.638,0,1.289,1.289,0,0,0-.775-1.214Z" transform="translate(-236.897 -524.539)" fill="#11182d"/>
          </g>
        </g>
      </g>
    </g>
  </g>
</svg>
