<svg id="NewGroup1-14" xmlns="http://www.w3.org/2000/svg" width="39.84" height="32.545" viewBox="0 0 39.84 32.545">
  <g id="Group_1128" data-name="Group 1128" transform="translate(0 0)">
    <path id="Path_9922" data-name="Path 9922" d="M566.58,542.806v-8.152a1.625,1.625,0,0,0-1.624-1.624H552.084a1.625,1.625,0,0,0-1.624,1.624v19.031a1.625,1.625,0,0,0,1.624,1.624h6.144v-1.685h-6.941v-18.8H565.8v7.983h.781Z" transform="translate(-528.303 -525.905)" fill="#11182d"/>
    <path id="Path_9923" data-name="Path 9923" d="M557.2,537.63a.121.121,0,0,0,.123-.123v-2.6a.121.121,0,0,0-.123-.123h-5.532a.121.121,0,0,0-.123.123v2.6a.121.121,0,0,0,.123.123Z" transform="translate(-527.723 -524.974)" fill="#11182d"/>
    <path id="Path_9924" data-name="Path 9924" d="M551.55,544.307a.121.121,0,0,0,.123.123H557.2a.121.121,0,0,0,.123-.123v-2.6a.121.121,0,0,0-.123-.123h-5.532a.121.121,0,0,0-.123.123v2.6Z" transform="translate(-527.723 -521.354)" fill="#11182d"/>
    <path id="Path_9925" data-name="Path 9925" d="M561.8,535.563a.121.121,0,0,0-.123-.123h-5.593a.121.121,0,0,0-.123.123v.613a.121.121,0,0,0,.123.123h5.593a.121.121,0,0,0,.123-.123v-.613Z" transform="translate(-525.375 -524.622)" fill="#11182d"/>
    <path id="Path_9926" data-name="Path 9926" d="M564.146,537.628a.137.137,0,0,0-.138-.138h-12.32a.137.137,0,0,0-.138.138v.521a.137.137,0,0,0,.138.138h12.32a.137.137,0,0,0,.138-.138v-.521Z" transform="translate(-527.723 -523.531)" fill="#11182d"/>
    <path id="Path_9927" data-name="Path 9927" d="M564.146,539.509v-.521a.137.137,0,0,0-.138-.138h-12.32a.137.137,0,0,0-.138.138v.521a.137.137,0,0,0,.138.138h12.32a.138.138,0,0,0,.138-.138Z" transform="translate(-527.723 -522.807)" fill="#11182d"/>
    <path id="Path_9928" data-name="Path 9928" d="M551.683,541.017h5.991a2.081,2.081,0,0,1,.291-.8H551.7a.137.137,0,0,0-.138.138v.521a.117.117,0,0,0,.123.138Z" transform="translate(-527.718 -522.078)" fill="#11182d"/>
    <path id="Path_9929" data-name="Path 9929" d="M551.688,545.247h5.945v-.8h-5.945a.137.137,0,0,0-.138.138v.521a.137.137,0,0,0,.138.138Z" transform="translate(-527.723 -519.826)" fill="#11182d"/>
    <path id="Path_9930" data-name="Path 9930" d="M555.619,546.645H539.943a.7.7,0,0,1-.7-.7V530.893a.929.929,0,0,1,.935-.935h28.072a.929.929,0,0,1,.935.935v3.2h.981V530.28a1.9,1.9,0,0,0-1.9-1.9H540.02a1.9,1.9,0,0,0-1.9,1.9v19.536h17.5v-3.172Z" transform="translate(-534.872 -528.38)" fill="#11182d"/>
    <path id="Path_9931" data-name="Path 9931" d="M540.183,548.051h16.564v-2.927h-4.52a1.01,1.01,0,0,1-1.011-1.011v-.843H536v.613a4.185,4.185,0,0,0,4.183,4.168Z" transform="translate(-536 -520.454)" fill="#11182d"/>
    <path id="Path_9932" data-name="Path 9932" d="M564.474,553.5h-7.508V541.469h7.508V553.5Zm-.552-13.177h-6.451a1.033,1.033,0,0,0-1.042,1.042v12.166a1.033,1.033,0,0,0,1.042,1.042h6.451a1.033,1.033,0,0,0,1.042-1.042V541.362a1.033,1.033,0,0,0-1.042-1.042Z" transform="translate(-525.125 -522.025)" fill="#11182d"/>
    <path id="Path_9933" data-name="Path 9933" d="M557.263,543.263h3.448a.121.121,0,0,0,.122-.123v-1.578a.121.121,0,0,0-.122-.123h-3.448a.121.121,0,0,0-.123.123v1.578c-.015.061.046.123.123.123Z" transform="translate(-524.748 -521.429)" fill="#11182d"/>
    <path id="Path_9934" data-name="Path 9934" d="M557.263,547.613h3.448a.121.121,0,0,0,.122-.123v-1.578a.121.121,0,0,0-.122-.123h-3.448a.121.121,0,0,0-.123.123v1.578c-.015.061.046.123.123.123Z" transform="translate(-524.748 -519.113)" fill="#11182d"/>
    <path id="Path_9935" data-name="Path 9935" d="M560.153,545.79a.121.121,0,0,0-.123.123v1.578a.121.121,0,0,0,.123.123h1.517a.121.121,0,0,0,.123-.123v-1.578a.121.121,0,0,0-.123-.123Z" transform="translate(-523.209 -519.113)" fill="#11182d"/>
    <path id="Path_9936" data-name="Path 9936" d="M560.083,542.422h1.7a.121.121,0,0,0,.123-.123v-.306a.121.121,0,0,0-.123-.123h-1.7a.121.121,0,0,0-.123.123v.306c-.015.061.046.123.123.123Z" transform="translate(-523.247 -521.2)" fill="#11182d"/>
    <path id="Path_9937" data-name="Path 9937" d="M557.279,543.676h5.991a.137.137,0,0,0,.138-.138v-.23a.137.137,0,0,0-.138-.138h-5.991a.137.137,0,0,0-.138.138v.23c-.015.077.046.138.138.138Z" transform="translate(-524.748 -520.508)" fill="#11182d"/>
    <path id="Path_9938" data-name="Path 9938" d="M557.279,544.556h5.991a.137.137,0,0,0,.138-.138v-.23a.137.137,0,0,0-.138-.138h-5.991a.137.137,0,0,0-.138.138v.23c-.015.077.046.138.138.138Z" transform="translate(-524.748 -520.039)" fill="#11182d"/>
    <path id="Path_9939" data-name="Path 9939" d="M557.279,545.426h5.991a.137.137,0,0,0,.138-.138v-.23a.137.137,0,0,0-.138-.138h-5.991a.137.137,0,0,0-.138.138v.23c-.015.077.046.138.138.138Z" transform="translate(-524.748 -519.576)" fill="#11182d"/>
    <path id="Path_9940" data-name="Path 9940" d="M557.279,548.136h5.991a.137.137,0,0,0,.138-.138v-.23a.137.137,0,0,0-.138-.138h-5.991a.137.137,0,0,0-.138.138V548c-.015.077.046.138.138.138Z" transform="translate(-524.748 -518.134)" fill="#11182d"/>
  </g>
</svg>
