<svg id="NewGroupe20_1_" xmlns="http://www.w3.org/2000/svg" width="18.961" height="24.436" viewBox="0 0 18.961 28.436">
  <g id="NewGroup1-29" transform="translate(0 0)">
    <g id="Group_1202" data-name="Group 1202">
      <path id="Path_10671" data-name="Path 10671" d="M90.942,443.522a.29.29,0,0,0-.066-.055l-.624-.624a.574.574,0,0,0-.624-.12l-.011.011a.574.574,0,0,0-.35.525v.9a1.709,1.709,0,0,1-1.707,1.707H85.3a1.709,1.709,0,0,1-1.707-1.707v-.886a.575.575,0,0,0-.35-.525l-.011-.011a.557.557,0,0,0-.613.12l-.635.635-.011.011a1.468,1.468,0,0,0-.3,1.74,5.316,5.316,0,0,1,.6,2.462H90.57a5.237,5.237,0,0,1,.667-2.571,1.272,1.272,0,0,0-.3-1.608Z" transform="translate(-76.937 -425.535)" fill="#11182d"/>
      <path id="Path_10672" data-name="Path 10672" d="M90.526,449.729V448.34H82.09v1.389a.878.878,0,0,0,.875.875H89.65a.885.885,0,0,0,.875-.875Z" transform="translate(-76.882 -425.003)" fill="#11182d"/>
      <path id="Path_10673" data-name="Path 10673" d="M84.012,453.157h4.3a.364.364,0,0,0,.361-.361V451.33H83.64V452.8a.367.367,0,0,0,.372.361Z" transform="translate(-76.736 -424.721)" fill="#11182d"/>
      <path id="Path_10674" data-name="Path 10674" d="M86.816,430.806a5.678,5.678,0,1,1-5.679,5.678,5.673,5.673,0,0,1,5.679-5.678ZM79.978,435H77.691a.364.364,0,0,0-.361.361v2.265a.364.364,0,0,0,.361.361h2.287a7.015,7.015,0,0,0,.941,2.287h0L79.3,441.89a.363.363,0,0,0,0,.514l1.6,1.6a.363.363,0,0,0,.514,0l1.619-1.619a6.918,6.918,0,0,0,2.287.941h0v2.287a.364.364,0,0,0,.361.361h2.265a.364.364,0,0,0,.361-.361v-2.287a7.016,7.016,0,0,0,2.287-.941h0L92.21,444a.363.363,0,0,0,.514,0l1.6-1.6a.363.363,0,0,0,0-.514L92.7,440.27a6.918,6.918,0,0,0,.941-2.287H95.93a.364.364,0,0,0,.361-.361v-2.265A.364.364,0,0,0,95.93,435H93.643a7.015,7.015,0,0,0-.941-2.287l1.619-1.619a.363.363,0,0,0,0-.514l-1.6-1.6a.363.363,0,0,0-.514,0L90.591,430.6h0a6.917,6.917,0,0,0-2.287-.941v-2.287a.364.364,0,0,0-.361-.361H85.678a.364.364,0,0,0-.361.361v2.287h0a7.016,7.016,0,0,0-2.287.941l-1.619-1.619a.363.363,0,0,0-.514,0l-1.6,1.6a.363.363,0,0,0,0,.514l1.619,1.619h0A6.918,6.918,0,0,0,79.978,435Z" transform="translate(-77.33 -427.01)" fill="#11182d"/>
      <path id="Path_10675" data-name="Path 10675" d="M85.4,434.376a.778.778,0,0,1-.12-.449.884.884,0,0,1,.12-.438,1.3,1.3,0,0,1,.284-.383v1.565a1.208,1.208,0,0,1-.284-.3Zm1.488,2.429a2.28,2.28,0,0,1,.613.449.776.776,0,0,1,.241.58,1.17,1.17,0,0,1-.241.788,1.63,1.63,0,0,1-.613.427v-2.243Zm-2.834,2.757a3.072,3.072,0,0,0,.722.525,3.447,3.447,0,0,0,.908.328v.284a.6.6,0,0,0,1.2,0v-.273a2.789,2.789,0,0,0,.821-.274,2.5,2.5,0,0,0,.7-.525,2.382,2.382,0,0,0,.481-.788,2.858,2.858,0,0,0,.175-1.05,2.035,2.035,0,0,0-.175-.864,2.317,2.317,0,0,0-.47-.7,3.274,3.274,0,0,0-.7-.558,7.74,7.74,0,0,0-.842-.449v-2.068a.647.647,0,0,1,.35.328c.055.142.109.284.153.416a1.166,1.166,0,0,0,.175.35.506.506,0,0,0,.416.153.661.661,0,0,0,.481-.2.693.693,0,0,0,.2-.5,1.671,1.671,0,0,0-.142-.7,2.32,2.32,0,0,0-.383-.58,2.5,2.5,0,0,0-.569-.427,2.23,2.23,0,0,0-.667-.241v-.131c0-.46-.208-.689-.613-.689s-.591.23-.591.689v.131a2.252,2.252,0,0,0-.646.274,2.182,2.182,0,0,0-.908,1.094,2.529,2.529,0,0,0,0,1.608,2.273,2.273,0,0,0,.361.635,2.563,2.563,0,0,0,.536.492,4.406,4.406,0,0,0,.667.383V439a1.493,1.493,0,0,1-.93-1.017.644.644,0,0,0-.656-.536.692.692,0,0,0-.46.175.653.653,0,0,0-.219.525,1.6,1.6,0,0,0,.175.733,2.091,2.091,0,0,0,.449.678Z" transform="translate(-76.756 -426.641)" fill="#11182d"/>
    </g>
  </g>
</svg>
