<svg id="NewGroupe20_1_" xmlns="http://www.w3.org/2000/svg" width="26.22" height="39.323" viewBox="0 0 26.22 39.323">
  <g id="NewGroup1-29" transform="translate(0 0)">
    <g id="Group_1202" data-name="Group 1202">
      <path id="Path_10671" data-name="Path 10671" d="M94.552,443.845a.4.4,0,0,0-.091-.076l-.862-.862a.794.794,0,0,0-.862-.166l-.015.015a.794.794,0,0,0-.484.726v1.241a2.363,2.363,0,0,1-2.36,2.36H86.745a2.363,2.363,0,0,1-2.36-2.36V443.5a.794.794,0,0,0-.484-.726l-.015-.015a.77.77,0,0,0-.847.166l-.878.877-.015.015a2.03,2.03,0,0,0-.408,2.406,7.351,7.351,0,0,1,.832,3.4H94.038a7.242,7.242,0,0,1,.923-3.556,1.759,1.759,0,0,0-.409-2.224Z" transform="translate(-75.186 -418.972)" fill="#11182d"/>
      <path id="Path_10672" data-name="Path 10672" d="M93.755,450.261V448.34H82.09v1.921a1.214,1.214,0,0,0,1.21,1.211h9.244a1.224,1.224,0,0,0,1.21-1.211Z" transform="translate(-74.888 -416.068)" fill="#11182d"/>
      <path id="Path_10673" data-name="Path 10673" d="M84.154,453.857H90.1a.5.5,0,0,0,.5-.5V451.33H83.64v2.027a.507.507,0,0,0,.514.5Z" transform="translate(-74.093 -414.534)" fill="#11182d"/>
      <path id="Path_10674" data-name="Path 10674" d="M90.447,432.26a7.852,7.852,0,1,1-7.852,7.852,7.845,7.845,0,0,1,7.852-7.852Zm-9.456,5.795H77.829a.5.5,0,0,0-.5.5v3.132a.5.5,0,0,0,.5.5h3.162a9.7,9.7,0,0,0,1.3,3.162h0l-2.239,2.239a.5.5,0,0,0,0,.711l2.209,2.209a.5.5,0,0,0,.711,0l2.239-2.239a9.565,9.565,0,0,0,3.162,1.3h0v3.162a.5.5,0,0,0,.5.5h3.132a.5.5,0,0,0,.5-.5v-3.162a9.7,9.7,0,0,0,3.162-1.3h0l2.239,2.239a.5.5,0,0,0,.711,0l2.209-2.209a.5.5,0,0,0,0-.711l-2.239-2.239a9.567,9.567,0,0,0,1.3-3.162h3.162a.5.5,0,0,0,.5-.5v-3.132a.5.5,0,0,0-.5-.5H99.888a9.7,9.7,0,0,0-1.3-3.162l2.239-2.239a.5.5,0,0,0,0-.711l-2.209-2.209a.5.5,0,0,0-.711,0l-2.239,2.239h0a9.567,9.567,0,0,0-3.162-1.3v-3.162a.5.5,0,0,0-.5-.5H88.874a.5.5,0,0,0-.5.5v3.162h0a9.7,9.7,0,0,0-3.162,1.3l-2.239-2.239a.5.5,0,0,0-.711,0l-2.209,2.209a.5.5,0,0,0,0,.711l2.239,2.239h0a9.567,9.567,0,0,0-1.3,3.162Z" transform="translate(-77.33 -427.01)" fill="#11182d"/>
      <path id="Path_10675" data-name="Path 10675" d="M86.153,435.7a1.076,1.076,0,0,1-.166-.62,1.222,1.222,0,0,1,.166-.605,1.791,1.791,0,0,1,.393-.529V436.1a1.669,1.669,0,0,1-.393-.409Zm2.058,3.359a3.149,3.149,0,0,1,.847.62,1.074,1.074,0,0,1,.333.8,1.618,1.618,0,0,1-.333,1.089,2.253,2.253,0,0,1-.847.59v-3.1Zm-3.919,3.813a4.249,4.249,0,0,0,1,.726,4.765,4.765,0,0,0,1.256.454v.393a.832.832,0,1,0,1.664,0v-.378a3.857,3.857,0,0,0,1.135-.378,3.461,3.461,0,0,0,.968-.726,3.3,3.3,0,0,0,.666-1.089,3.954,3.954,0,0,0,.242-1.453,2.814,2.814,0,0,0-.242-1.2,3.206,3.206,0,0,0-.651-.968,4.527,4.527,0,0,0-.968-.772,10.683,10.683,0,0,0-1.165-.62V434a.9.9,0,0,1,.484.454c.076.2.151.393.212.575a1.614,1.614,0,0,0,.242.484.7.7,0,0,0,.575.212.914.914,0,0,0,.666-.272.958.958,0,0,0,.272-.7,2.31,2.31,0,0,0-.2-.968,3.208,3.208,0,0,0-.53-.8,3.461,3.461,0,0,0-.787-.59,3.083,3.083,0,0,0-.923-.333v-.182c0-.635-.287-.953-.847-.953q-.817,0-.817.953v.182a3.111,3.111,0,0,0-.893.378,3.016,3.016,0,0,0-1.256,1.513,3.5,3.5,0,0,0,0,2.224,3.143,3.143,0,0,0,.5.878,3.548,3.548,0,0,0,.741.681,6.106,6.106,0,0,0,.923.529V442.1a2.065,2.065,0,0,1-1.286-1.407.891.891,0,0,0-.908-.741.957.957,0,0,0-.635.242.9.9,0,0,0-.3.726,2.22,2.22,0,0,0,.242,1.014,2.894,2.894,0,0,0,.62.938Z" transform="translate(-74.201 -424.999)" fill="#11182d"/>
    </g>
  </g>
</svg>
