<svg xmlns="http://www.w3.org/2000/svg" width="49.055" height="39.371" viewBox="0 0 49.055 39.371">
  <g id="NewGroupe39_1_" transform="translate(0)">
    <g id="NewGroup1-10" transform="translate(0 0)">
      <g id="Group_630" data-name="Group 630">
        <path id="Path_5737" data-name="Path 5737" d="M899.18,533.336V558.08h40.58V533.336a2.409,2.409,0,0,0-2.416-2.416H928.19l2.661,2h6.474a1.184,1.184,0,0,1,1.189,1.189v19.044a.886.886,0,0,1-.887.887H901.483a.886.886,0,0,1-.887-.887V534.11a1.184,1.184,0,0,1,1.189-1.189h6.738l2.774-2h-9.7a2.421,2.421,0,0,0-2.416,2.416Z" transform="translate(-895.065 -526.485)" fill="#11182d"/>
        <path id="Path_5738" data-name="Path 5738" d="M926.822,546.22V547.3a1.285,1.285,0,0,1-1.283,1.283h-7.984a1.285,1.285,0,0,1-1.283-1.283V546.22H897v.774a5.288,5.288,0,0,0,5.285,5.285H940.77a5.288,5.288,0,0,0,5.285-5.285v-.774Z" transform="translate(-897 -512.907)" fill="#11182d"/>
        <path id="Path_5739" data-name="Path 5739" d="M926.923,537.139l-11.457-8.569-11.306,8.154v2.68l11.306-8.154,11.457,8.569Z" transform="translate(-890.646 -528.57)" fill="#11182d"/>
        <path id="Path_5740" data-name="Path 5740" d="M915.533,549.53a6.153,6.153,0,1,1,6.153-6.153,6.154,6.154,0,0,1-6.153,6.153Zm0-18.78-9.381,7.04V549.7H905a1.144,1.144,0,0,0-1.151,1.151v1.34H927.2v-1.34a1.144,1.144,0,0,0-1.151-1.151H924.9V537.79l-9.362-7.04Z" transform="translate(-890.921 -526.635)" fill="#11182d"/>
        <path id="Path_5741" data-name="Path 5741" d="M910.27,537.68v1.51a1.083,1.083,0,0,0,.415-.283.774.774,0,0,0,.17-.529.543.543,0,0,0-.17-.4,1.82,1.82,0,0,0-.415-.3Z" transform="translate(-885.224 -520.486)" fill="#11182d"/>
        <path id="Path_5742" data-name="Path 5742" d="M914.061,541.526a1.653,1.653,0,0,1-.321.528,1.733,1.733,0,0,1-.472.359,1.826,1.826,0,0,1-.566.189v.189a.415.415,0,1,1-.83,0V542.6a1.765,1.765,0,0,1-.623-.227,1.938,1.938,0,0,1-.491-.359,1.522,1.522,0,0,1-.321-.453,1.162,1.162,0,0,1-.113-.491.454.454,0,0,1,.151-.359.512.512,0,0,1,.321-.113.442.442,0,0,1,.453.359.994.994,0,0,0,.642.7v-1.887a2.619,2.619,0,0,1-.453-.264,1.537,1.537,0,0,1-.359-.34,1.235,1.235,0,0,1-.245-.434,1.577,1.577,0,0,1-.094-.547,1.661,1.661,0,0,1,.094-.547,1.619,1.619,0,0,1,.245-.434,1.9,1.9,0,0,1,.359-.321,1.789,1.789,0,0,1,.434-.189V536.6c0-.321.132-.472.4-.472.283,0,.415.151.415.472v.094a2.21,2.21,0,0,1,.453.17,1.163,1.163,0,0,1,.377.283,1.124,1.124,0,0,1,.264.4,1.312,1.312,0,0,1,.094.472.455.455,0,0,1-.132.34.414.414,0,0,1-.321.132.39.39,0,0,1-.283-.094.584.584,0,0,1-.113-.245c-.038-.094-.057-.189-.094-.283a.44.44,0,0,0-.226-.226v1.415a5.731,5.731,0,0,1,.585.3,2.437,2.437,0,0,1,.472.378,1.607,1.607,0,0,1,.321.472,1.472,1.472,0,0,1,.113.585,1.773,1.773,0,0,1-.132.736Zm-1.793-6.606a4.737,4.737,0,1,0,4.737,4.737,4.74,4.74,0,0,0-4.737-4.737Z" transform="translate(-887.655 -522.935)" fill="#11182d"/>
        <path id="Path_5743" data-name="Path 5743" d="M909.766,536.605a.649.649,0,0,0-.076.3.479.479,0,0,0,.076.3,1.875,1.875,0,0,0,.189.208V536.36a.656.656,0,0,0-.189.245Z" transform="translate(-885.738 -521.657)" fill="#11182d"/>
      </g>
    </g>
  </g>
</svg>
