<svg xmlns="http://www.w3.org/2000/svg" width="50.201" height="40.292" viewBox="0 0 50.201 40.292">
  <g id="NewGroupe39_1_" transform="translate(0)">
    <g id="NewGroup1-10" transform="translate(0 0)">
      <g id="Group_630" data-name="Group 630">
        <path id="Path_5737" data-name="Path 5737" d="M899.18,533.392v25.323h41.528V533.392a2.465,2.465,0,0,0-2.472-2.473h-9.368l2.724,2.047h6.625a1.212,1.212,0,0,1,1.217,1.217v19.49a.907.907,0,0,1-.908.908H901.537a.907.907,0,0,1-.908-.908v-19.49a1.212,1.212,0,0,1,1.217-1.217h6.9l2.839-2.047h-9.928a2.477,2.477,0,0,0-2.472,2.473Z" transform="translate(-894.969 -526.381)" fill="#11182d"/>
        <path id="Path_5738" data-name="Path 5738" d="M927.518,546.22v1.1a1.315,1.315,0,0,1-1.313,1.313h-8.17a1.315,1.315,0,0,1-1.313-1.313v-1.1H897v.792a5.412,5.412,0,0,0,5.408,5.408h39.384a5.412,5.412,0,0,0,5.408-5.408v-.792Z" transform="translate(-897 -512.128)" fill="#11182d"/>
        <path id="Path_5739" data-name="Path 5739" d="M927.455,537.339,915.73,528.57l-11.57,8.344v2.743l11.57-8.344,11.724,8.769Z" transform="translate(-890.33 -528.57)" fill="#11182d"/>
        <path id="Path_5740" data-name="Path 5740" d="M915.806,549.969a6.3,6.3,0,1,1,6.3-6.3,6.3,6.3,0,0,1-6.3,6.3Zm0-19.219-9.6,7.2v12.188h-1.178a1.17,1.17,0,0,0-1.178,1.178v1.372h23.893v-1.372a1.17,1.17,0,0,0-1.178-1.178h-1.178V537.955l-9.58-7.2Z" transform="translate(-890.619 -526.539)" fill="#11182d"/>
        <path id="Path_5741" data-name="Path 5741" d="M910.27,537.68v1.545a1.109,1.109,0,0,0,.425-.29.791.791,0,0,0,.174-.541.556.556,0,0,0-.174-.406,1.867,1.867,0,0,0-.425-.309Z" transform="translate(-884.639 -520.083)" fill="#11182d"/>
        <path id="Path_5742" data-name="Path 5742" d="M914.213,541.681a1.69,1.69,0,0,1-.328.541,1.779,1.779,0,0,1-.483.367,1.871,1.871,0,0,1-.58.193v.193a.425.425,0,0,1-.85,0v-.193a1.808,1.808,0,0,1-.637-.232,1.984,1.984,0,0,1-.5-.367,1.553,1.553,0,0,1-.328-.463,1.189,1.189,0,0,1-.116-.5.465.465,0,0,1,.154-.367.526.526,0,0,1,.328-.116.452.452,0,0,1,.464.367,1.017,1.017,0,0,0,.657.715v-1.932a2.652,2.652,0,0,1-.463-.27,1.565,1.565,0,0,1-.367-.348,1.265,1.265,0,0,1-.251-.444,1.613,1.613,0,0,1-.1-.56,1.7,1.7,0,0,1,.1-.56,1.666,1.666,0,0,1,.251-.444,1.94,1.94,0,0,1,.367-.328,1.817,1.817,0,0,1,.444-.193v-.1c0-.328.135-.483.406-.483.29,0,.425.154.425.483v.1a2.266,2.266,0,0,1,.464.174,1.194,1.194,0,0,1,.386.29,1.148,1.148,0,0,1,.27.406,1.34,1.34,0,0,1,.1.483.465.465,0,0,1-.135.348.423.423,0,0,1-.328.135.4.4,0,0,1-.29-.1.6.6,0,0,1-.116-.251c-.039-.1-.058-.193-.1-.29a.451.451,0,0,0-.232-.232v1.449a5.805,5.805,0,0,1,.6.309,2.5,2.5,0,0,1,.483.386,1.646,1.646,0,0,1,.328.483,1.505,1.505,0,0,1,.116.6,1.812,1.812,0,0,1-.136.753Zm-1.835-6.76a4.848,4.848,0,1,0,4.848,4.848,4.851,4.851,0,0,0-4.848-4.848Z" transform="translate(-887.191 -522.655)" fill="#11182d"/>
        <path id="Path_5743" data-name="Path 5743" d="M909.767,536.611a.662.662,0,0,0-.077.309.49.49,0,0,0,.077.309,1.94,1.94,0,0,0,.193.212V536.36a.672.672,0,0,0-.193.251Z" transform="translate(-885.179 -521.313)" fill="#11182d"/>
      </g>
    </g>
  </g>
</svg>
