<svg id="NewGroup1-1" xmlns="http://www.w3.org/2000/svg" width="37.803" height="39.791" viewBox="0 0 37.803 39.791">
  <g id="Group_1154" data-name="Group 1154" transform="translate(0 0)">
    <path id="Path_10165" data-name="Path 10165" d="M825.286,634.209h4.8l-6.119-6.119v4.8a1.306,1.306,0,0,0,1.316,1.316Z" transform="translate(-797.458 -623.363)" fill="#11182d"/>
    <path id="Path_10166" data-name="Path 10166" d="M826.635,625H807.971a1.332,1.332,0,0,0-1.331,1.331v32.4a1.332,1.332,0,0,0,1.331,1.331H809.7V629.681a1.332,1.332,0,0,1,1.331-1.331h15.6V625Z" transform="translate(-806.64 -625)" fill="#11182d"/>
    <path id="Path_10167" data-name="Path 10167" d="M817.578,637.193a.872.872,0,0,1-.719,1.362.84.84,0,0,1-.719-.382l-3.044-3.58,3.044-3.58a.86.86,0,0,1,.719-.382.871.871,0,0,1,.872.872.841.841,0,0,1-.153.49l-2.4,2.6,2.4,2.6Zm4.926-5.2a.877.877,0,0,1,.719-1.362.84.84,0,0,1,.719.382l3.044,3.58-3.044,3.58a.859.859,0,0,1-.719.383.871.871,0,0,1-.872-.872.841.841,0,0,1,.153-.49l2.4-2.6-2.4-2.6Zm15.13,29.816v-8.322H824.952a2.7,2.7,0,0,1-2.693-2.693V644.2a2.7,2.7,0,0,1,2.693-2.693h12.682V636h-5.813a2.1,2.1,0,0,1-2.1-2.1V628.09H811.061a1.332,1.332,0,0,0-1.331,1.331v32.4a1.332,1.332,0,0,0,1.331,1.331h25.258a1.352,1.352,0,0,0,1.316-1.346Z" transform="translate(-805.003 -623.363)" fill="#11182d"/>
    <path id="Path_10168" data-name="Path 10168" d="M832.869,644.95a2.192,2.192,0,0,1-1.285,1.132,2.621,2.621,0,0,1-.841.138,2.362,2.362,0,0,1-.933-.184,2.907,2.907,0,0,1-.765-.459,2.094,2.094,0,0,1-.52-.643,1.533,1.533,0,0,1-.2-.7.657.657,0,0,1,.214-.52.722.722,0,0,1,.49-.184.823.823,0,0,1,.428.122.711.711,0,0,1,.26.428.768.768,0,0,0,.352.535,1.3,1.3,0,0,0,.688.2,1.022,1.022,0,0,0,.627-.2.74.74,0,0,0,.275-.627.948.948,0,0,0-.153-.566,1.357,1.357,0,0,0-.4-.383,5.776,5.776,0,0,0-.52-.306,3.721,3.721,0,0,1-.535-.306,5.338,5.338,0,0,1-.49-.382,3.288,3.288,0,0,1-.428-.49,2.9,2.9,0,0,1-.306-.566,1.771,1.771,0,0,1-.107-.643,1.841,1.841,0,0,1,.184-.841,1.678,1.678,0,0,1,.474-.6,2.256,2.256,0,0,1,.643-.367,2.367,2.367,0,0,1,.719-.122,2.447,2.447,0,0,1,.719.122,1.876,1.876,0,0,1,.643.352,2.005,2.005,0,0,1,.459.551,1.381,1.381,0,0,1,.184.7.715.715,0,0,1-.2.52.639.639,0,0,1-.5.214.667.667,0,0,1-.459-.153.739.739,0,0,1-.229-.49.409.409,0,0,0-.23-.321.766.766,0,0,0-.382-.107.582.582,0,0,0-.444.153.565.565,0,0,0-.153.367.852.852,0,0,0,.122.459,1.349,1.349,0,0,0,.336.321,3.043,3.043,0,0,0,.444.245c.153.076.306.153.444.229a4.47,4.47,0,0,1,.612.444,3.294,3.294,0,0,1,.5.535,2.776,2.776,0,0,1,.337.627,2.217,2.217,0,0,1,.122.719,2.567,2.567,0,0,1-.2,1.04Zm-5.217-1.01a2.216,2.216,0,0,1-.183.9,2.679,2.679,0,0,1-.49.734,2.373,2.373,0,0,1-.734.49,2.214,2.214,0,0,1-.9.184,2.288,2.288,0,0,1-.918-.184,2.251,2.251,0,0,1-1.224-1.224,2.215,2.215,0,0,1-.184-.9.7.7,0,1,1,1.392,0,.881.881,0,0,0,.275.643.865.865,0,0,0,.643.26.938.938,0,0,0,.658-.26.865.865,0,0,0,.26-.643v-4.6c0-.49.23-.75.7-.75.459,0,.688.245.688.75v4.6Zm9.822,2.723a1.261,1.261,0,0,0,.505-1.01V639.06a1.267,1.267,0,0,0-1.27-1.27h-16.6a1.267,1.267,0,0,0-1.27,1.27v6.594a1.267,1.267,0,0,0,1.27,1.27h16.6a1.186,1.186,0,0,0,.765-.26Z" transform="translate(-800.176 -618.223)" fill="#11182d"/>
  </g>
</svg>
