<svg id="NewGroupe19_1_" xmlns="http://www.w3.org/2000/svg" width="50.974" height="39.412" viewBox="0 0 50.974 39.412">
  <g id="NewGroup1-30" transform="translate(0 0)">
    <g id="Group_1200" data-name="Group 1200">
      <path id="Path_10646" data-name="Path 10646" d="M899.17,346.2a6.855,6.855,0,0,0-.49,2.548,6.957,6.957,0,1,0,13.914,0,6.859,6.859,0,0,0-.49-2.548h-4.037a3.528,3.528,0,1,1-4.9,0Z" transform="translate(-895.368 -316.293)" fill="#11182d"/>
      <path id="Path_10647" data-name="Path 10647" d="M919.026,348.714a2.539,2.539,0,0,1-1.783.745H915.93a6.961,6.961,0,0,0,13.855-.96,6.423,6.423,0,0,0-.313-2.038H925.69a3.5,3.5,0,0,1,.647,2.038,3.527,3.527,0,1,1-7.055,0v-.118a1.382,1.382,0,0,1-.255.333Z" transform="translate(-878.812 -316.044)" fill="#11182d"/>
      <path id="Path_10648" data-name="Path 10648" d="M904.42,348.22a1.47,1.47,0,1,0-1.47,1.47,1.468,1.468,0,0,0,1.47-1.47Z" transform="translate(-892.681 -315.766)" fill="#11182d"/>
      <path id="Path_10649" data-name="Path 10649" d="M921.63,348.22a1.47,1.47,0,1,0-1.47,1.47,1.468,1.468,0,0,0,1.47-1.47Z" transform="translate(-876.163 -315.766)" fill="#11182d"/>
      <path id="Path_10650" data-name="Path 10650" d="M945.534,352.741a12.011,12.011,0,0,0-7.624-.333l-1.548-6.036a12.8,12.8,0,0,0-3.586-6.115h.764a1.23,1.23,0,0,0,1.235-1.235V335.71a.572.572,0,0,0-.921-.451,4.841,4.841,0,0,1-2.939,1h-6.291a.527.527,0,0,0-.529.529v.412a.527.527,0,0,0,.529.529h1.724a.544.544,0,0,1,.529.549.527.527,0,0,0,.529.529h1.2l2.979,15.11a1.243,1.243,0,0,1-1.215,1.49h-9.8a5.524,5.524,0,0,1-1.392-.176,1.254,1.254,0,0,0-.137-.039,4.143,4.143,0,0,1-2.744-4.978,19.948,19.948,0,0,1,1.646-4.41h1.039a.9.9,0,0,0,.9-.9v-1.2a.9.9,0,0,0-.9-.9H897.892a.9.9,0,0,0-.9.9v1.2a.9.9,0,0,0,.9.9h12.17v1.823a7.918,7.918,0,0,0-2.567-.412,8.222,8.222,0,0,0-8.212,8.212h13.4a3.781,3.781,0,0,1,3.273,1.921l.118.176a3.917,3.917,0,0,0,3.371,1.94h15.992a1.565,1.565,0,0,0,1.588-1.568v-.1a1.459,1.459,0,0,1,1.47-1.352h9.466a4.014,4.014,0,0,0-2.43-3.7Z" transform="translate(-896.99 -326.911)" fill="#11182d"/>
      <path id="Path_10651" data-name="Path 10651" d="M903.993,338.149a1.064,1.064,0,0,0,.353-.216,1.022,1.022,0,0,0,.235-.333.963.963,0,0,0,.078-.411,1.529,1.529,0,0,0-.078-.431,1.023,1.023,0,0,0-.235-.333,1.064,1.064,0,0,0-.353-.216,1.118,1.118,0,0,0-.431-.078h-.412v2.1h.412a1.118,1.118,0,0,0,.431-.078Z" transform="translate(-891.078 -325.959)" fill="#11182d"/>
      <path id="Path_10652" data-name="Path 10652" d="M899.583,338.011a1.114,1.114,0,0,0,.353.235,1.054,1.054,0,0,0,.431.078,1.149,1.149,0,0,0,.451-.078,1.08,1.08,0,0,0,.588-.588,1.054,1.054,0,0,0,.078-.431,1.07,1.07,0,0,0-.1-.431,1.082,1.082,0,0,0-.588-.588,1.069,1.069,0,0,0-.431-.1,1.161,1.161,0,0,0-.451.1.907.907,0,0,0-.353.255,1.208,1.208,0,0,0-.235.372,1.117,1.117,0,0,0-.078.431,1.057,1.057,0,0,0,.078.431c.079.078.157.2.255.314Z" transform="translate(-894.821 -325.978)" fill="#11182d"/>
      <path id="Path_10653" data-name="Path 10653" d="M901.523,338.011a1.114,1.114,0,0,0,.353.235,1.054,1.054,0,0,0,.431.078,1.15,1.15,0,0,0,.451-.078,1.08,1.08,0,0,0,.588-.588,1.051,1.051,0,0,0,.078-.431,1.069,1.069,0,0,0-.1-.431,1.082,1.082,0,0,0-.588-.588,1.07,1.07,0,0,0-.431-.1,1.164,1.164,0,0,0-.451.1.907.907,0,0,0-.353.255,1.2,1.2,0,0,0-.235.372,1.119,1.119,0,0,0-.078.431,1.056,1.056,0,0,0,.078.431c.078.078.157.2.255.314Z" transform="translate(-892.959 -325.978)" fill="#11182d"/>
      <path id="Path_10654" data-name="Path 10654" d="M898.744,336.949a.294.294,0,0,1,.078-.216.314.314,0,0,1,.216-.1h1.274a.337.337,0,0,1,.314.313.28.28,0,0,1-.1.216.315.315,0,0,1-.215.1h-.96v.588h.862a.376.376,0,0,1,.235.078.324.324,0,0,1,.1.235.315.315,0,0,1-.1.216.324.324,0,0,1-.235.1h-.862v1.2a.272.272,0,0,1-.314.314c-.216,0-.313-.1-.313-.314v-2.724Zm2.175.706a1.787,1.787,0,0,1,.372-.568,1.865,1.865,0,0,1,.549-.392,1.59,1.59,0,0,1,.686-.137,1.681,1.681,0,0,1,.706.137,1.905,1.905,0,0,1,.568.372,1.7,1.7,0,0,1,.372.549,1.592,1.592,0,0,1,.137.686,1.652,1.652,0,0,1-.137.686,1.809,1.809,0,0,1-.372.549,2.093,2.093,0,0,1-.549.372,1.784,1.784,0,0,1-1.372,0,1.9,1.9,0,0,1-.568-.372,1.515,1.515,0,0,1-.372-.549,1.59,1.59,0,0,1-.137-.686,1.265,1.265,0,0,1,.117-.647Zm3.783,0a1.777,1.777,0,0,1,.372-.568,1.864,1.864,0,0,1,.549-.392,1.591,1.591,0,0,1,.686-.137,1.678,1.678,0,0,1,.705.137,1.9,1.9,0,0,1,.568.372,1.7,1.7,0,0,1,.373.549,1.592,1.592,0,0,1,.137.686,1.652,1.652,0,0,1-.137.686,1.811,1.811,0,0,1-.373.549,2.086,2.086,0,0,1-.549.372,1.783,1.783,0,0,1-1.372,0,2.193,2.193,0,0,1-.568-.372,1.515,1.515,0,0,1-.372-.549,1.589,1.589,0,0,1-.137-.686,1.507,1.507,0,0,1,.118-.647Zm3.7-.706a.3.3,0,0,1,.078-.216.315.315,0,0,1,.216-.1h.784a1.65,1.65,0,0,1,.686.137,1.758,1.758,0,0,1,.549.353,1.567,1.567,0,0,1,.353.529,1.822,1.822,0,0,1,.137.647,1.536,1.536,0,0,1-.137.686,1.339,1.339,0,0,1-.392.529,1.814,1.814,0,0,1-.568.333,2.017,2.017,0,0,1-.686.118H908.7a.281.281,0,0,1-.216-.1.3.3,0,0,1-.078-.216v-2.7Zm-10.014,4.527h13.189a1.4,1.4,0,0,0,1.391-1.391v-3.743a1.4,1.4,0,0,0-1.391-1.392H898.392A1.4,1.4,0,0,0,897,336.342v3.743a1.4,1.4,0,0,0,1.392,1.391Z" transform="translate(-896.981 -327.091)" fill="#11182d"/>
      <path id="Path_10655" data-name="Path 10655" d="M903.993,334.139a1.065,1.065,0,0,0,.353-.216,1.022,1.022,0,0,0,.235-.333.963.963,0,0,0,.078-.412,1.529,1.529,0,0,0-.078-.431,1.023,1.023,0,0,0-.235-.333,1.063,1.063,0,0,0-.353-.216,1.118,1.118,0,0,0-.431-.078h-.412v2.1h.412a1.119,1.119,0,0,0,.431-.078Z" transform="translate(-891.078 -329.807)" fill="#11182d"/>
      <path id="Path_10656" data-name="Path 10656" d="M899.583,333.991a1.115,1.115,0,0,0,.353.235,1.055,1.055,0,0,0,.431.078,1.15,1.15,0,0,0,.451-.078,1.08,1.08,0,0,0,.588-.588,1.054,1.054,0,0,0,.078-.431,1.07,1.07,0,0,0-.1-.431,1.082,1.082,0,0,0-.588-.588,1.069,1.069,0,0,0-.431-.1,1.161,1.161,0,0,0-.451.1.907.907,0,0,0-.353.255,1.208,1.208,0,0,0-.235.372,1.117,1.117,0,0,0-.078.431,1.057,1.057,0,0,0,.078.431,3.613,3.613,0,0,0,.255.314Z" transform="translate(-894.821 -329.836)" fill="#11182d"/>
      <path id="Path_10657" data-name="Path 10657" d="M901.523,333.991a1.115,1.115,0,0,0,.353.235,1.055,1.055,0,0,0,.431.078,1.151,1.151,0,0,0,.451-.078,1.08,1.08,0,0,0,.588-.588,1.051,1.051,0,0,0,.078-.431,1.069,1.069,0,0,0-.1-.431,1.082,1.082,0,0,0-.588-.588,1.07,1.07,0,0,0-.431-.1,1.164,1.164,0,0,0-.451.1.907.907,0,0,0-.353.255,1.2,1.2,0,0,0-.235.372,1.118,1.118,0,0,0-.078.431,1.056,1.056,0,0,0,.078.431,3.634,3.634,0,0,0,.255.314Z" transform="translate(-892.959 -329.836)" fill="#11182d"/>
      <path id="Path_10658" data-name="Path 10658" d="M898.744,332.939a.268.268,0,0,1,.078-.216.315.315,0,0,1,.216-.1h1.274a.314.314,0,0,1,0,.627h-.96v.588h.862a.376.376,0,0,1,.235.078.324.324,0,0,1,.1.235.315.315,0,0,1-.1.216.324.324,0,0,1-.235.1h-.862v1.2a.272.272,0,0,1-.314.314c-.216,0-.313-.1-.313-.314v-2.724Zm2.175.706a1.786,1.786,0,0,1,.372-.568,1.861,1.861,0,0,1,.549-.392,1.589,1.589,0,0,1,.686-.137,1.681,1.681,0,0,1,.706.137,1.9,1.9,0,0,1,.568.372,1.7,1.7,0,0,1,.372.549,1.592,1.592,0,0,1,.137.686,1.652,1.652,0,0,1-.137.686,1.809,1.809,0,0,1-.372.549,2.093,2.093,0,0,1-.549.372,1.784,1.784,0,0,1-1.372,0,1.9,1.9,0,0,1-.568-.372,1.516,1.516,0,0,1-.372-.549,1.591,1.591,0,0,1-.137-.686,1.23,1.23,0,0,1,.117-.647Zm3.783,0a1.776,1.776,0,0,1,.372-.568,1.86,1.86,0,0,1,.549-.392,1.591,1.591,0,0,1,.686-.137,1.678,1.678,0,0,1,.705.137,1.9,1.9,0,0,1,.568.372,1.7,1.7,0,0,1,.373.549,1.592,1.592,0,0,1,.137.686,1.652,1.652,0,0,1-.137.686,1.811,1.811,0,0,1-.373.549,2.086,2.086,0,0,1-.549.372,1.783,1.783,0,0,1-1.372,0,2.192,2.192,0,0,1-.568-.372,1.515,1.515,0,0,1-.372-.549,1.589,1.589,0,0,1-.137-.686,1.456,1.456,0,0,1,.118-.647Zm3.7-.706a.268.268,0,0,1,.078-.216.315.315,0,0,1,.216-.1h.784a1.65,1.65,0,0,1,.686.137,1.757,1.757,0,0,1,.549.353,1.567,1.567,0,0,1,.353.529,1.822,1.822,0,0,1,.137.647,1.536,1.536,0,0,1-.137.686,1.338,1.338,0,0,1-.392.529,1.814,1.814,0,0,1-.568.333,2.016,2.016,0,0,1-.686.118H908.7a.281.281,0,0,1-.216-.1.3.3,0,0,1-.078-.216v-2.7Zm-10.014,4.527h13.189a1.4,1.4,0,0,0,1.391-1.391v-3.743a1.4,1.4,0,0,0-1.391-1.391H898.392A1.4,1.4,0,0,0,897,332.331v3.743a1.4,1.4,0,0,0,1.392,1.391Z" transform="translate(-896.981 -330.94)" fill="#11182d"/>
    </g>
  </g>
</svg>
