<svg xmlns="http://www.w3.org/2000/svg" width="50.418" height="39.981" viewBox="0 0 50.418 38.981">
  <g id="NewGroupe19_1_" transform="translate(0)">
    <g id="NewGroup1-30" transform="translate(0 0)">
      <g id="Group_1200" data-name="Group 1200">
        <path id="Path_10646" data-name="Path 10646" d="M899.164,346.2a6.784,6.784,0,0,0-.484,2.52,6.881,6.881,0,0,0,13.763,0,6.783,6.783,0,0,0-.484-2.52h-3.993a3.489,3.489,0,1,1-4.846,0Z" transform="translate(-895.404 -316.62)" fill="#11182d"/>
        <path id="Path_10647" data-name="Path 10647" d="M918.993,348.689a2.511,2.511,0,0,1-1.764.737h-1.3a6.886,6.886,0,0,0,13.7-.95,6.355,6.355,0,0,0-.31-2.016h-3.741a3.49,3.49,0,1,1-6.339,2.016v-.116a1.364,1.364,0,0,1-.252.329Z" transform="translate(-879.216 -316.377)" fill="#11182d"/>
        <path id="Path_10648" data-name="Path 10648" d="M904.388,348.2a1.454,1.454,0,1,0-1.454,1.454,1.452,1.452,0,0,0,1.454-1.454Z" transform="translate(-892.777 -316.104)" fill="#11182d"/>
        <path id="Path_10649" data-name="Path 10649" d="M921.6,348.2a1.454,1.454,0,1,0-1.454,1.454A1.452,1.452,0,0,0,921.6,348.2Z" transform="translate(-876.626 -316.104)" fill="#11182d"/>
        <path id="Path_10650" data-name="Path 10650" d="M945,352.548a11.88,11.88,0,0,0-7.541-.329l-1.531-5.97a12.664,12.664,0,0,0-3.547-6.048h.756a1.216,1.216,0,0,0,1.221-1.221V335.7a.565.565,0,0,0-.911-.446,4.789,4.789,0,0,1-2.908.989h-6.222a.521.521,0,0,0-.523.523v.407a.521.521,0,0,0,.523.523h1.706a.538.538,0,0,1,.523.543.521.521,0,0,0,.523.523h1.182l2.946,14.945a1.23,1.23,0,0,1-1.2,1.473H920.31a5.466,5.466,0,0,1-1.376-.175,1.223,1.223,0,0,0-.136-.039,4.1,4.1,0,0,1-2.714-4.923,19.719,19.719,0,0,1,1.628-4.361h1.028a.889.889,0,0,0,.891-.892v-1.182a.889.889,0,0,0-.891-.892H897.882a.889.889,0,0,0-.892.892v1.182a.889.889,0,0,0,.892.892H909.92v1.8a7.831,7.831,0,0,0-2.539-.407,8.132,8.132,0,0,0-8.122,8.122h13.258a3.74,3.74,0,0,1,3.237,1.9l.116.174A3.874,3.874,0,0,0,919.2,359.2h15.817a1.547,1.547,0,0,0,1.57-1.551v-.1a1.444,1.444,0,0,1,1.454-1.338h9.363a3.97,3.97,0,0,0-2.4-3.664Z" transform="translate(-896.99 -327.001)" fill="#11182d"/>
        <path id="Path_10651" data-name="Path 10651" d="M903.983,338.127a1.055,1.055,0,0,0,.349-.213,1.012,1.012,0,0,0,.233-.33.951.951,0,0,0,.078-.407,1.517,1.517,0,0,0-.078-.426,1.014,1.014,0,0,0-.233-.329,1.053,1.053,0,0,0-.349-.213,1.1,1.1,0,0,0-.426-.078h-.407V338.2h.407a1.106,1.106,0,0,0,.426-.077Z" transform="translate(-891.209 -326.07)" fill="#11182d"/>
        <path id="Path_10652" data-name="Path 10652" d="M899.58,337.99a1.1,1.1,0,0,0,.349.233,1.043,1.043,0,0,0,.426.078,1.137,1.137,0,0,0,.446-.078,1.069,1.069,0,0,0,.582-.582,1.044,1.044,0,0,0,.077-.426,1.056,1.056,0,0,0-.1-.426,1.071,1.071,0,0,0-.582-.582,1.057,1.057,0,0,0-.426-.1,1.149,1.149,0,0,0-.446.1.9.9,0,0,0-.349.252,1.191,1.191,0,0,0-.233.368,1.1,1.1,0,0,0-.077.426,1.046,1.046,0,0,0,.077.426c.078.078.155.194.252.31Z" transform="translate(-894.869 -326.089)" fill="#11182d"/>
        <path id="Path_10653" data-name="Path 10653" d="M901.52,337.99a1.1,1.1,0,0,0,.349.233,1.043,1.043,0,0,0,.426.078,1.138,1.138,0,0,0,.446-.078,1.069,1.069,0,0,0,.582-.582,1.04,1.04,0,0,0,.078-.426,1.057,1.057,0,0,0-.1-.426,1.07,1.07,0,0,0-.582-.582,1.057,1.057,0,0,0-.426-.1,1.149,1.149,0,0,0-.446.1.9.9,0,0,0-.349.252,1.2,1.2,0,0,0-.233.368,1.1,1.1,0,0,0-.078.426,1.047,1.047,0,0,0,.078.426c.078.078.155.194.252.31Z" transform="translate(-893.049 -326.089)" fill="#11182d"/>
        <path id="Path_10654" data-name="Path 10654" d="M898.725,336.927a.292.292,0,0,1,.077-.213.312.312,0,0,1,.213-.1h1.26a.333.333,0,0,1,.31.31.278.278,0,0,1-.1.213.312.312,0,0,1-.213.1h-.95v.582h.853a.373.373,0,0,1,.233.078.321.321,0,0,1,.1.233.311.311,0,0,1-.1.213.321.321,0,0,1-.233.1h-.853v1.182a.31.31,0,1,1-.62,0v-2.694Zm2.152.7a1.766,1.766,0,0,1,.368-.562,1.847,1.847,0,0,1,.543-.388,1.573,1.573,0,0,1,.678-.136,1.662,1.662,0,0,1,.7.136,1.881,1.881,0,0,1,.562.368,1.68,1.68,0,0,1,.368.543,1.573,1.573,0,0,1,.136.678,1.632,1.632,0,0,1-.136.678,1.786,1.786,0,0,1-.368.543,2.069,2.069,0,0,1-.543.368,1.764,1.764,0,0,1-1.357,0,1.883,1.883,0,0,1-.562-.368,1.5,1.5,0,0,1-.368-.543,1.572,1.572,0,0,1-.136-.678,1.254,1.254,0,0,1,.116-.64Zm3.741,0a1.76,1.76,0,0,1,.368-.562,1.839,1.839,0,0,1,.543-.388,1.571,1.571,0,0,1,.678-.136,1.661,1.661,0,0,1,.7.136,1.878,1.878,0,0,1,.562.368,1.679,1.679,0,0,1,.368.543,1.573,1.573,0,0,1,.136.678,1.632,1.632,0,0,1-.136.678,1.787,1.787,0,0,1-.368.543,2.06,2.06,0,0,1-.543.368,1.764,1.764,0,0,1-1.357,0,2.169,2.169,0,0,1-.562-.368,1.5,1.5,0,0,1-.368-.543,1.572,1.572,0,0,1-.136-.678,1.5,1.5,0,0,1,.116-.64Zm3.664-.7a.291.291,0,0,1,.078-.213.311.311,0,0,1,.213-.1h.775a1.633,1.633,0,0,1,.678.136,1.741,1.741,0,0,1,.543.349,1.547,1.547,0,0,1,.349.523,1.8,1.8,0,0,1,.135.64,1.515,1.515,0,0,1-.135.678,1.322,1.322,0,0,1-.388.523,1.794,1.794,0,0,1-.562.329,2,2,0,0,1-.678.116h-.717a.278.278,0,0,1-.213-.1.291.291,0,0,1-.078-.213v-2.675Zm-9.905,4.478h13.046a1.382,1.382,0,0,0,1.376-1.376v-3.7a1.382,1.382,0,0,0-1.376-1.376H898.376A1.382,1.382,0,0,0,897,336.326v3.7a1.382,1.382,0,0,0,1.376,1.376Z" transform="translate(-896.981 -327.177)" fill="#11182d"/>
        <path id="Path_10655" data-name="Path 10655" d="M903.983,334.117a1.054,1.054,0,0,0,.349-.213,1.011,1.011,0,0,0,.233-.33.95.95,0,0,0,.078-.407,1.516,1.516,0,0,0-.078-.426,1.015,1.015,0,0,0-.233-.33,1.053,1.053,0,0,0-.349-.213,1.105,1.105,0,0,0-.426-.078h-.407v2.074h.407a1.106,1.106,0,0,0,.426-.077Z" transform="translate(-891.209 -329.833)" fill="#11182d"/>
        <path id="Path_10656" data-name="Path 10656" d="M899.58,333.97a1.1,1.1,0,0,0,.349.233,1.042,1.042,0,0,0,.426.078,1.136,1.136,0,0,0,.446-.078,1.069,1.069,0,0,0,.582-.582,1.043,1.043,0,0,0,.077-.426,1.056,1.056,0,0,0-.1-.426,1.071,1.071,0,0,0-.582-.582,1.057,1.057,0,0,0-.426-.1,1.15,1.15,0,0,0-.446.1.9.9,0,0,0-.349.252,1.188,1.188,0,0,0-.233.368,1.1,1.1,0,0,0-.077.426,1.045,1.045,0,0,0,.077.426,3.6,3.6,0,0,0,.252.31Z" transform="translate(-894.869 -329.861)" fill="#11182d"/>
        <path id="Path_10657" data-name="Path 10657" d="M901.52,333.97a1.1,1.1,0,0,0,.349.233,1.042,1.042,0,0,0,.426.078,1.136,1.136,0,0,0,.446-.078,1.069,1.069,0,0,0,.582-.582,1.039,1.039,0,0,0,.078-.426,1.057,1.057,0,0,0-.1-.426,1.071,1.071,0,0,0-.582-.582,1.058,1.058,0,0,0-.426-.1,1.15,1.15,0,0,0-.446.1.9.9,0,0,0-.349.252,1.192,1.192,0,0,0-.233.368,1.1,1.1,0,0,0-.078.426,1.046,1.046,0,0,0,.078.426,3.562,3.562,0,0,0,.252.31Z" transform="translate(-893.049 -329.861)" fill="#11182d"/>
        <path id="Path_10658" data-name="Path 10658" d="M898.725,332.917a.265.265,0,0,1,.077-.213.312.312,0,0,1,.213-.1h1.26a.31.31,0,0,1,0,.62h-.95v.581h.853a.374.374,0,0,1,.233.078.321.321,0,0,1,.1.233.311.311,0,0,1-.1.213.321.321,0,0,1-.233.1h-.853v1.182a.31.31,0,1,1-.62,0v-2.694Zm2.152.7a1.766,1.766,0,0,1,.368-.562,1.851,1.851,0,0,1,.543-.388,1.573,1.573,0,0,1,.678-.136,1.662,1.662,0,0,1,.7.136,1.883,1.883,0,0,1,.562.368,1.681,1.681,0,0,1,.368.543,1.572,1.572,0,0,1,.136.678,1.632,1.632,0,0,1-.136.678,1.785,1.785,0,0,1-.368.543,2.069,2.069,0,0,1-.543.368,1.763,1.763,0,0,1-1.357,0,1.881,1.881,0,0,1-.562-.368,1.5,1.5,0,0,1-.368-.543,1.572,1.572,0,0,1-.136-.678,1.219,1.219,0,0,1,.116-.64Zm3.741,0a1.76,1.76,0,0,1,.368-.562,1.843,1.843,0,0,1,.543-.388,1.572,1.572,0,0,1,.678-.136,1.661,1.661,0,0,1,.7.136,1.88,1.88,0,0,1,.562.368,1.681,1.681,0,0,1,.368.543,1.572,1.572,0,0,1,.136.678,1.632,1.632,0,0,1-.136.678,1.786,1.786,0,0,1-.368.543,2.059,2.059,0,0,1-.543.368,1.763,1.763,0,0,1-1.357,0,2.168,2.168,0,0,1-.562-.368,1.5,1.5,0,0,1-.368-.543,1.572,1.572,0,0,1-.136-.678,1.449,1.449,0,0,1,.116-.64Zm3.664-.7a.264.264,0,0,1,.078-.213.31.31,0,0,1,.213-.1h.775a1.63,1.63,0,0,1,.678.136,1.739,1.739,0,0,1,.543.349,1.546,1.546,0,0,1,.349.523,1.8,1.8,0,0,1,.135.64,1.515,1.515,0,0,1-.135.678,1.321,1.321,0,0,1-.388.523,1.794,1.794,0,0,1-.562.33,2,2,0,0,1-.678.116h-.717a.278.278,0,0,1-.213-.1.291.291,0,0,1-.078-.213v-2.675Zm-9.905,4.478h13.046a1.382,1.382,0,0,0,1.376-1.376v-3.7a1.382,1.382,0,0,0-1.376-1.376H898.376A1.382,1.382,0,0,0,897,332.316v3.7a1.382,1.382,0,0,0,1.376,1.376Z" transform="translate(-896.981 -330.94)" fill="#11182d"/>
      </g>
    </g>
  </g>
</svg>
