<svg xmlns="http://www.w3.org/2000/svg" width="59.627" height="53.511" viewBox="0 0 59.627 53.511"><g transform="translate(-610 -466)"><path d="M55.8,33.9H3.822a3.822,3.822,0,1,1,0-7.644H55.8a3.822,3.822,0,0,1,0,7.644Z" transform="translate(610 439.744)" fill="#f1f1f1"/><path d="M34.4,230.824H3.822a3.822,3.822,0,1,1,0-7.645H34.4a3.822,3.822,0,1,1,0,7.645Z" transform="translate(610 265.754)" fill="#f1f1f1"/><path d="M403.784,230.824h-6.116a3.822,3.822,0,1,1,0-7.645h6.116a3.822,3.822,0,0,1,0,7.645Z" transform="translate(262.021 265.754)" fill="rgba(255,255,255,0.4)"/><path d="M55.8,427.747H3.822a3.822,3.822,0,0,1,0-7.645H55.8a3.822,3.822,0,0,1,0,7.645Z" transform="translate(610 91.765)" fill="#f1f1f1"/></g></svg>