<svg id="NewGroup1-4" xmlns="http://www.w3.org/2000/svg" width="35.335" height="39.854" viewBox="0 0 35.335 39.854">
  <g id="Group_1148" data-name="Group 1148" transform="translate(0 0)">
    <path id="Path_10112" data-name="Path 10112" d="M546.465,626.17h6.359a.506.506,0,0,1,0,1.011h-6.359a.506.506,0,1,1,0-1.011Zm-.659,36.269a.818.818,0,0,1,.812.812.812.812,0,0,1-1.624,0,.818.818,0,0,1,.812-.812Zm2.222,0a.812.812,0,1,1,0,1.624.818.818,0,0,1-.812-.812.8.8,0,0,1,.812-.812Zm2.207,0a.818.818,0,0,1,.812.812.812.812,0,1,1-.812-.812Zm2.191,0a.812.812,0,1,1,0,1.624.812.812,0,1,1,0-1.624Zm-12.412,2.406h18.219a2.547,2.547,0,0,0,2.544-2.544V651.789H559.4v9.194a.768.768,0,0,1-.766.766H539.584a.768.768,0,0,1-.766-.766V629.035a.768.768,0,0,1,.766-.766h19.046a.768.768,0,0,1,.766.766v3.647h1.379v-5.148a2.537,2.537,0,0,0-2.544-2.544H540.014a2.547,2.547,0,0,0-2.544,2.544V662.27a2.554,2.554,0,0,0,2.544,2.574Z" transform="translate(-537.47 -624.99)" fill="#11182d"/>
    <path id="Path_10113" data-name="Path 10113" d="M547.6,644.98a2.942,2.942,0,1,1,2.942-2.942,2.943,2.943,0,0,1-2.942,2.942Zm4.413-1.992h1.624a.307.307,0,0,0,.307-.306v-1.3a.307.307,0,0,0-.307-.306h-1.624a4.471,4.471,0,0,0-.613-1.471h0l1.149-1.149a.3.3,0,0,0,0-.429l-.919-.919a.3.3,0,0,0-.429,0l-1.149,1.149a4.61,4.61,0,0,0-1.471-.613v-1.624a.307.307,0,0,0-.307-.306h-1.3a.307.307,0,0,0-.307.306v1.624a4.471,4.471,0,0,0-1.471.613h0l-1.149-1.149a.3.3,0,0,0-.429,0l-.919.919a.3.3,0,0,0,0,.429l1.149,1.149a4.606,4.606,0,0,0-.613,1.471h-1.624a.307.307,0,0,0-.307.306v1.3a.307.307,0,0,0,.307.306h1.624a4.468,4.468,0,0,0,.613,1.471h0l-1.149,1.149a.3.3,0,0,0,0,.429l.919.919a.3.3,0,0,0,.429,0l1.149-1.149h0a4.61,4.61,0,0,0,1.471.613v1.624a.307.307,0,0,0,.307.306h1.3a.307.307,0,0,0,.307-.306v-1.624a4.471,4.471,0,0,0,1.471-.613l1.149,1.149a.3.3,0,0,0,.429,0l.919-.919a.3.3,0,0,0,0-.429l-1.149-1.149a4.051,4.051,0,0,0,.613-1.471Z" transform="translate(-535.431 -619.284)" fill="#11182d"/>
    <path id="Path_10114" data-name="Path 10114" d="M543.948,632.355a2.038,2.038,0,1,1-2.038,2.038,2.037,2.037,0,0,1,2.038-2.038Zm-3.417,4.8.644.643a.233.233,0,0,0,.306,0l.781-.8h0a3.237,3.237,0,0,0,1.027.429v1.119a.209.209,0,0,0,.215.215h.9a.21.21,0,0,0,.215-.215v-1.119a3.178,3.178,0,0,0,1.027-.429l.781.8a.233.233,0,0,0,.306,0l.644-.643a.233.233,0,0,0,0-.306l-.781-.782a3.236,3.236,0,0,0,.429-1.027h1.119a.209.209,0,0,0,.215-.215v-.9a.21.21,0,0,0-.215-.215h-1.119a3.178,3.178,0,0,0-.429-1.027h0l.781-.781a.233.233,0,0,0,0-.306l-.644-.644a.233.233,0,0,0-.306,0l-.781.8a3.235,3.235,0,0,0-1.027-.429v-1.119a.21.21,0,0,0-.215-.215h-.9a.209.209,0,0,0-.215.215v1.119a3.176,3.176,0,0,0-1.027.429h0l-.781-.781a.233.233,0,0,0-.306,0l-.644.643a.233.233,0,0,0,0,.307l.781.781a3.238,3.238,0,0,0-.429,1.027h-1.118a.209.209,0,0,0-.215.215v.9a.209.209,0,0,0,.215.215h1.118a2.965,2.965,0,0,0,.429,1.011h0l-.781.8a.213.213,0,0,0,0,.291Z" transform="translate(-536.363 -622.334)" fill="#11182d"/>
    <path id="Path_10115" data-name="Path 10115" d="M567.9,631.9v-.276a.7.7,0,0,0-.7-.7h-19.8a.7.7,0,0,0-.7.7v.276a.7.7,0,0,0,.7.7h19.8a.694.694,0,0,0,.7-.7Z" transform="translate(-532.562 -621.834)" fill="#11182d"/>
    <path id="Path_10116" data-name="Path 10116" d="M566.5,634.291v-.276a.7.7,0,0,0-.7-.7h-18.4a.7.7,0,0,0-.7.7v.276a.7.7,0,0,0,.7.7h18.4a.7.7,0,0,0,.7-.7Z" transform="translate(-532.562 -620.562)" fill="#11182d"/>
    <path id="Path_10117" data-name="Path 10117" d="M563.208,636.681V636.4a.7.7,0,0,0-.7-.7H550.965a.7.7,0,0,0-.7.7v.276a.7.7,0,0,0,.7.7H562.5a.713.713,0,0,0,.7-.7Z" transform="translate(-530.662 -619.29)" fill="#11182d"/>
    <path id="Path_10118" data-name="Path 10118" d="M561.824,639.061v-.276a.7.7,0,0,0-.7-.7H550.975a.7.7,0,0,0-.7.7v.276a.7.7,0,0,0,.7.7h10.144a.7.7,0,0,0,.7-.7Z" transform="translate(-530.657 -618.023)" fill="#11182d"/>
    <path id="Path_10119" data-name="Path 10119" d="M550.975,640.48a.7.7,0,0,0-.7.7v.276a.7.7,0,0,0,.7.7h8.749a.7.7,0,0,0,.7-.7v-.276a.7.7,0,0,0-.7-.7Z" transform="translate(-530.657 -616.745)" fill="#11182d"/>
  </g>
</svg>
