<svg id="_94f5fb4bbf9e81d15ab13dd9912bee53" data-name="94f5fb4bbf9e81d15ab13dd9912bee53" xmlns="http://www.w3.org/2000/svg" width="36.436" height="40.984" viewBox="0 0 36.436 40.984">
  <g id="_x35_151e0c8492e5103c096af88a51f0aa3" transform="translate(0 0)">
    <path id="Path_11262" data-name="Path 11262" d="M71.381,22.2l-1.928-1.1a.4.4,0,0,1-.2-.339V18.408a.39.39,0,0,0-.2-.339l-.82-.473a.367.367,0,0,0-.2-.054.378.378,0,0,0-.2.054l-.82.473a.4.4,0,0,0-.2.339v2.351a.4.4,0,0,1-.2.339l-1.928,1.1a.185.185,0,0,1-.2,0,.188.188,0,0,1-.1-.167L64.4,17a.385.385,0,0,1,.2-.339l3.246-1.87a.344.344,0,0,1,.18-.05h.033a.445.445,0,0,1,.18.05l3.246,1.87a.4.4,0,0,1,.2.339l0,5.032a.192.192,0,0,1-.1.167A.185.185,0,0,1,71.381,22.2Zm12.494-1.347V17.1a.39.39,0,0,1,.2-.339l3.25-1.874a.389.389,0,0,1,.393,0l.811.468a.136.136,0,0,0,.138,0,.139.139,0,0,0,.067-.117V10.256a.192.192,0,0,1,.1-.167.194.194,0,0,1,.2,0l1.932,1.079a.392.392,0,0,1,.2.343v9.349a.39.39,0,0,1-.2.339l-3.25,1.878a.389.389,0,0,1-.393,0L84.067,21.2A.4.4,0,0,1,83.875,20.855Zm2.418-1.234a.092.092,0,0,0,.05.084l1.117.644a.1.1,0,0,0,.1,0l1.117-.644a.1.1,0,0,0,.05-.084V18.333a.092.092,0,0,0-.05-.084l-1.117-.644a.107.107,0,0,0-.1,0l-1.113.644a.1.1,0,0,0-.05.084Zm14.351-2.907L97.415,14.84a.389.389,0,0,0-.393,0l-3.246,1.874a.4.4,0,0,0-.2.339V20.8a.4.4,0,0,0,.2.343L97,22.984a.4.4,0,0,0,.385,0l1.953-1.083a.2.2,0,0,0,0-.343l-3.267-1.874a.194.194,0,0,1-.1-.171V18.341a.2.2,0,0,1,.1-.171l1.016-.586a.2.2,0,0,1,.2,0l1.016.586a.19.19,0,0,1,.1.171v.92a.2.2,0,0,0,.1.171.205.205,0,0,0,.2,0L100.64,18.3a.4.4,0,0,0,.2-.339v-.908A.38.38,0,0,0,100.644,16.714ZM74.338,21.123,77.584,23a.389.389,0,0,0,.393,0l3.25-1.878a.4.4,0,0,0,.2-.339V17.032a.39.39,0,0,0-.2-.339l-3.25-1.874a.389.389,0,0,0-.393,0l-3.246,1.874a.4.4,0,0,0-.2.339v3.752A.394.394,0,0,0,74.338,21.123Zm19.35,8.654L83.67,23.992a2.186,2.186,0,0,0-2.1,0L71.553,29.777A2.109,2.109,0,0,0,70.5,31.6V43.158a2.121,2.121,0,0,0,1.05,1.828L74.179,46.5a4.282,4.282,0,0,0,2.309.627c1.882,0,2.966-1.138,2.966-3.125V32.592a.287.287,0,0,0-.289-.289H77.894a.287.287,0,0,0-.293.289V44c0,.883-.912,1.757-2.4,1.012L72.456,43.43a.308.308,0,0,1-.159-.268V31.6a.332.332,0,0,1,.159-.276l10.009-5.776a.314.314,0,0,1,.31,0l10.009,5.776a.323.323,0,0,1,.155.276V43.162a.311.311,0,0,1-.155.272L82.771,49.21a.337.337,0,0,1-.31,0l-2.568-1.527a.25.25,0,0,0-.247-.017,6.7,6.7,0,0,1-1.51.686c-.163.059-.41.155.092.435l3.342,1.978a2.115,2.115,0,0,0,2.1,0l10.014-5.781a2.12,2.12,0,0,0,1.054-1.828V31.6A2.129,2.129,0,0,0,93.688,29.777ZM86.1,42.058c-2.987,0-3.647-.753-3.865-2.238a.329.329,0,0,0-.326-.276h-1.46a.327.327,0,0,0-.326.326c0,1.9,1.033,4.17,5.977,4.17,3.576,0,5.63-1.41,5.63-3.869,0-2.439-1.648-3.087-5.12-3.547-3.505-.464-3.865-.7-3.865-1.527,0-.678.3-1.581,2.9-1.581,2.321,0,3.175.5,3.526,2.062a.323.323,0,0,0,.318.255h1.464a.323.323,0,0,0,.238-.1.327.327,0,0,0,.088-.251c-.226-2.694-2.016-3.949-5.634-3.949-3.221,0-5.141,1.359-5.141,3.635,0,2.472,1.912,3.154,5,3.459,3.7.364,3.986.9,3.986,1.631C89.5,41.522,88.485,42.058,86.1,42.058ZM97.247,18.124a.08.08,0,0,0-.075,0l-.623.36a.071.071,0,0,0-.038.067v.719a.08.08,0,0,0,.038.067l.623.36a.08.08,0,0,0,.075,0l.623-.36a.071.071,0,0,0,.038-.067V18.55a.08.08,0,0,0-.038-.067Z" transform="translate(-64.4 -10.062)" fill="#11182d"/>
  </g>
</svg>
