<svg id="NewGroupe38" xmlns="http://www.w3.org/2000/svg" width="38.703" height="39.44" viewBox="0 0 38.703 39.44">
  <g id="NewGroup0-11" transform="translate(0 0)">
    <g id="Group_525" data-name="Group 525">
      <path id="Path_4631" data-name="Path 4631" d="M826.285,531.127h1.3v6.932h-1.3v-6.932Zm3.125-1.881h1.3v8.813h-1.3v-8.813Zm3.11,3.428h1.3v5.385h-1.3v-5.385Zm3.125-2.245h1.3v7.63h-1.3v-7.63Zm-20.085-2.5v11.453a1.929,1.929,0,0,0,1.927,1.927h6.326v.03a1.016,1.016,0,0,0,1.016,1.016h0l-3.792,6.568a.567.567,0,1,0,.986.561l4.126-7.13h3.171l4.126,7.13a.567.567,0,1,0,.986-.561l-3.793-6.568h0a1.016,1.016,0,0,0,1.016-1.016v-.03h6.326a1.929,1.929,0,0,0,1.927-1.927V527.927A1.929,1.929,0,0,0,837.981,526H817.517a1.936,1.936,0,0,0-1.957,1.927Z" transform="translate(-801.392 -526)" fill="#11182d"/>
      <path id="Path_4632" data-name="Path 4632" d="M819.472,540.136a5.446,5.446,0,1,0-5.446,5.446,5.451,5.451,0,0,0,5.446-5.446Z" transform="translate(-805 -521.508)" fill="#11182d"/>
      <path id="Path_4633" data-name="Path 4633" d="M824.242,548.707a5.121,5.121,0,0,0-5.128-5.127H817.34a1.3,1.3,0,0,1-.182.88l-.683,1.183v.015a1.327,1.327,0,0,1-.2.683l.8,2.852a2.136,2.136,0,0,1-.106,1.471l-1.745,3.792-1.745-3.792a2.055,2.055,0,0,1-.106-1.471l.8-2.852a1.285,1.285,0,0,1-.2-.683v-.015l-.683-1.183a1.494,1.494,0,0,1-.182-.88h-1.775a5.121,5.121,0,0,0-5.127,5.127v7.645h18.007v-7.645Z" transform="translate(-806.22 -516.912)" fill="#11182d"/>
      <path id="Path_4634" data-name="Path 4634" d="M813.947,544.271a.688.688,0,0,0-.592-1.031h-1.411a.683.683,0,0,0-.592,1.031l.713,1.229a1.319,1.319,0,0,0,.106.152.42.42,0,0,0-.046.2.55.55,0,0,0,.288.47l-.925,3.261a1.43,1.43,0,0,0,.076.971l1.077,2.366,1.077-2.366a1.428,1.428,0,0,0,.076-.971l-.925-3.261a.531.531,0,0,0,.288-.47.418.418,0,0,0-.046-.2.544.544,0,0,0,.106-.152l.728-1.229Z" transform="translate(-803.617 -517.088)" fill="#11182d"/>
      <path id="Path_4635" data-name="Path 4635" d="M837.291,542.27a1.081,1.081,0,0,0-1.077,1.077,1.188,1.188,0,0,0,.106.47l-2.579,3.413-.683-.44a1.079,1.079,0,0,0-2.139.2,1.332,1.332,0,0,0,.03.243l-2.382,2.746a.979.979,0,0,0-.3-.046,1.065,1.065,0,0,0-.531.137l-1.456-1.047a1.085,1.085,0,0,0-2.154.03l-4.93,3.9a.561.561,0,0,0,.349,1,.608.608,0,0,0,.349-.121l4.733-3.747a1.056,1.056,0,0,0,.561.167,1.011,1.011,0,0,0,.592-.182l1.381.986a1.078,1.078,0,0,0,2.154-.046.74.74,0,0,0-.015-.182l2.412-2.791a1.492,1.492,0,0,0,.258.03,1.04,1.04,0,0,0,.637-.212l.925.607a.553.553,0,0,0,.758-.137l2.943-3.914h.015a1.081,1.081,0,0,0,1.077-1.077.994.994,0,0,0-1.031-1.062Z" transform="translate(-799.624 -517.589)" fill="#11182d"/>
    </g>
  </g>
</svg>
