<svg id="NewGroupe38" xmlns="http://www.w3.org/2000/svg" width="38.272" height="39.003" viewBox="0 0 38.272 39.003">
  <g id="NewGroup0-11" transform="translate(0 0)">
    <g id="Group_525" data-name="Group 525">
      <path id="Path_4631" data-name="Path 4631" d="M826.166,531.07h1.29v6.856h-1.29V531.07Zm3.09-1.86h1.29v8.716h-1.29V529.21Zm3.075,3.39h1.29v5.326h-1.29V532.6Zm3.09-2.22h1.29v7.546h-1.29V530.38Zm-19.861-2.475v11.326a1.908,1.908,0,0,0,1.905,1.905h6.255v.03a1,1,0,0,0,1,1h0l-3.75,6.5a.561.561,0,1,0,.975.555l4.08-7.05h3.135l4.08,7.05a.561.561,0,1,0,.975-.555l-3.75-6.5h0a1,1,0,0,0,1.005-1v-.03h6.255a1.908,1.908,0,0,0,1.905-1.905V527.905A1.908,1.908,0,0,0,837.731,526H817.5a1.914,1.914,0,0,0-1.935,1.905Z" transform="translate(-801.549 -526)" fill="#11182d"/>
      <path id="Path_4632" data-name="Path 4632" d="M819.351,540.075a5.385,5.385,0,1,0-5.385,5.385,5.39,5.39,0,0,0,5.385-5.385Z" transform="translate(-805.04 -521.654)" fill="#11182d"/>
      <path id="Path_4633" data-name="Path 4633" d="M824.041,548.65a5.064,5.064,0,0,0-5.07-5.07h-1.755a1.281,1.281,0,0,1-.18.87l-.675,1.17v.015a1.311,1.311,0,0,1-.195.675l.8,2.82a2.112,2.112,0,0,1-.105,1.455l-1.725,3.75-1.725-3.75a2.031,2.031,0,0,1-.1-1.455l.795-2.82a1.272,1.272,0,0,1-.2-.675v-.015l-.675-1.17a1.478,1.478,0,0,1-.18-.87H811.29a5.064,5.064,0,0,0-5.07,5.07v7.561h17.806V548.65Z" transform="translate(-806.22 -517.208)" fill="#11182d"/>
      <path id="Path_4634" data-name="Path 4634" d="M813.917,544.26a.681.681,0,0,0-.585-1.02h-1.4a.676.676,0,0,0-.585,1.02l.7,1.215a1.3,1.3,0,0,0,.105.15.416.416,0,0,0-.045.2.544.544,0,0,0,.285.465l-.915,3.225a1.415,1.415,0,0,0,.075.96l1.065,2.34,1.065-2.34a1.413,1.413,0,0,0,.075-.96l-.915-3.225a.526.526,0,0,0,.285-.465.415.415,0,0,0-.045-.2.536.536,0,0,0,.105-.15l.72-1.215Z" transform="translate(-803.702 -517.378)" fill="#11182d"/>
      <path id="Path_4635" data-name="Path 4635" d="M837.087,542.27a1.069,1.069,0,0,0-1.065,1.065,1.175,1.175,0,0,0,.105.465l-2.55,3.375-.675-.435a1.067,1.067,0,0,0-2.115.2,1.323,1.323,0,0,0,.03.24l-2.355,2.715a.962.962,0,0,0-.3-.045,1.054,1.054,0,0,0-.525.135l-1.44-1.035a1.073,1.073,0,0,0-2.13.03l-4.875,3.855a.555.555,0,0,0,.345.99.6.6,0,0,0,.345-.12l4.68-3.705a1.043,1.043,0,0,0,.555.165,1,1,0,0,0,.585-.18l1.365.975a1.066,1.066,0,0,0,2.13-.045.724.724,0,0,0-.015-.18l2.385-2.76a1.488,1.488,0,0,0,.255.03,1.026,1.026,0,0,0,.63-.21l.915.6a.547.547,0,0,0,.75-.135l2.91-3.87h.015a1.069,1.069,0,0,0,1.065-1.065.983.983,0,0,0-1.02-1.05Z" transform="translate(-799.84 -517.863)" fill="#11182d"/>
    </g>
  </g>
</svg>
