<svg id="NewGroup1-29" xmlns="http://www.w3.org/2000/svg" width="39.855" height="35.12" viewBox="0 0 39.855 35.12">
  <g id="Group_1098" data-name="Group 1098" transform="translate(0 0)">
    <path id="Path_9683" data-name="Path 9683" d="M96.464,448.837a2.784,2.784,0,1,0-2.544-2.773,2.662,2.662,0,0,0,2.544,2.773Z" transform="translate(-61.864 -420.689)" fill="#11182d"/>
    <path id="Path_9684" data-name="Path 9684" d="M101.859,447.5l-2.375-.766a2.959,2.959,0,0,1-4.168,0l-2.375.766a1.137,1.137,0,0,0-.781,1.073l.368,4.842a.566.566,0,0,0,.567.567h1.348l-.368-3.325a.26.26,0,0,1,.521,0l.368,3.325h4.949l.306-3.325a.26.26,0,0,1,.521,0l-.306,3.325h1.348a.566.566,0,0,0,.567-.567l.306-4.842a1.156,1.156,0,0,0-.8-1.073Z" transform="translate(-62.801 -418.858)" fill="#11182d"/>
    <path id="Path_9685" data-name="Path 9685" d="M74.76,446.063A2.553,2.553,0,1,0,77.3,443.29a2.662,2.662,0,0,0-2.544,2.773Z" transform="translate(-72.063 -420.689)" fill="#11182d"/>
    <path id="Path_9686" data-name="Path 9686" d="M73,448.569l.368,4.842a.566.566,0,0,0,.567.567h1.348l-.368-3.325a.26.26,0,1,1,.521,0l.368,3.325h4.949l.306-3.325a.26.26,0,1,1,.521,0l-.306,3.325h1.348a.566.566,0,0,0,.567-.567l.306-4.842a1.137,1.137,0,0,0-.781-1.073l-2.375-.766a2.96,2.96,0,0,1-4.168,0L73.8,447.5a1.117,1.117,0,0,0-.8,1.073Z" transform="translate(-73 -418.858)" fill="#11182d"/>
    <path id="Path_9687" data-name="Path 9687" d="M96.593,453.7a.961.961,0,0,0-.965-.965H89.667v-8.55a.97.97,0,0,0,1.517-1.211l-1.716-2.191a.982.982,0,0,0-1.532,0l-1.716,2.191a.97.97,0,0,0,1.517,1.211v8.55H81.775a.965.965,0,1,0,0,1.931H95.643a.958.958,0,0,0,.95-.965Z" transform="translate(-68.843 -422.217)" fill="#11182d"/>
    <path id="Path_9688" data-name="Path 9688" d="M81.86,435.617,82.5,441.9a.67.67,0,0,0,.674.674h1.609l-.644-4.49a.306.306,0,1,1,.613,0l.644,4.49h5.424l.644-4.49a.306.306,0,1,1,.613,0l-.644,4.49h1.609a.67.67,0,0,0,.674-.674l.644-6.282a1.367,1.367,0,0,0-.935-1.287l-2.957-.95L88.679,437l.215-1.548-.26-.858a.421.421,0,0,1,.031-.306l.46-.781a.069.069,0,0,0-.061-.107H87.254a.069.069,0,0,0-.061.107l.49.843a.392.392,0,0,1,.031.322l-.291.766.138,1.517-1.823-3.57-2.942.95a1.367,1.367,0,0,0-.935,1.287Z" transform="translate(-68.284 -425.964)" fill="#11182d"/>
    <path id="Path_9689" data-name="Path 9689" d="M87,435.159a3.322,3.322,0,1,0-3.034-3.31A3.187,3.187,0,0,0,87,435.159Z" transform="translate(-67.161 -428.54)" fill="#11182d"/>
    <path id="Path_9690" data-name="Path 9690" d="M97.434,445.758a.965.965,0,0,0,1.931,0,14.817,14.817,0,0,0-6.528-12.289.971.971,0,0,0-1.088,1.609,12.881,12.881,0,0,1,5.685,10.68Z" transform="translate(-63.249 -426.007)" fill="#11182d"/>
    <path id="Path_9691" data-name="Path 9691" d="M76.471,446.718a.961.961,0,0,0,.965-.965,12.839,12.839,0,0,1,5.669-10.665.971.971,0,0,0-1.088-1.609,14.8,14.8,0,0,0-6.528,12.289.962.962,0,0,0,.981.95Z" transform="translate(-71.675 -426.001)" fill="#11182d"/>
  </g>
</svg>
