<svg xmlns="http://www.w3.org/2000/svg" width="35.319" height="39.854" viewBox="0 0 35.319 39.854">
  <g id="NewGroup1-35" transform="translate(0)">
    <g id="Group_580" data-name="Group 580" transform="translate(0 0)">
      <path id="Path_5132" data-name="Path 5132" d="M453.633,341.34a4.643,4.643,0,1,0,4.643,4.643,4.65,4.65,0,0,0-4.643-4.643Z" transform="translate(-435.935 -320.884)" fill="#11182d"/>
      <path id="Path_5133" data-name="Path 5133" d="M454.251,356.975l-.444-1.011a2.078,2.078,0,0,1-.092-1.486l.827-2.651a2.113,2.113,0,0,0-.2-1.716l-.781-1.364a.221.221,0,0,1,.2-.337H450.6a4.931,4.931,0,0,0-4.934,4.934v.4a15.87,15.87,0,0,0,3.187,1.885v-.567a.383.383,0,0,1,.766,0v.889a15.628,15.628,0,0,0,4.628,1.027Z" transform="translate(-437.702 -317.121)" fill="#11182d"/>
      <path id="Path_5134" data-name="Path 5134" d="M461.493,353.727v-.383a4.931,4.931,0,0,0-4.934-4.934h-3.126a.231.231,0,0,1,.2.337l-.781,1.364a2.175,2.175,0,0,0-.2,1.716l.827,2.651a2.078,2.078,0,0,1-.092,1.486l-.46,1.011a16.347,16.347,0,0,0,4.673-1.057v-.858a.379.379,0,0,1,.383-.383.44.44,0,0,1,.276.107.369.369,0,0,1,.107.276v.536a16.085,16.085,0,0,0,3.126-1.869Z" transform="translate(-434.035 -317.121)" fill="#11182d"/>
      <path id="Path_5135" data-name="Path 5135" d="M451.878,336.364a.557.557,0,0,0-.827,0l-1.3,1.486a.554.554,0,1,0,.827.736l.337-.383V343a.552.552,0,1,0,1.1,0v-4.8l.337.383a.548.548,0,0,0,.414.184.578.578,0,0,0,.368-.138.556.556,0,0,0,.046-.781l-1.3-1.486Z" transform="translate(-435.605 -323.631)" fill="#11182d"/>
      <path id="Path_5136" data-name="Path 5136" d="M453.654,336.18a.549.549,0,0,0-.552.552v4.8l-.337-.383a.554.554,0,1,0-.827.736l1.3,1.486a.557.557,0,0,0,.827,0l1.3-1.486a.554.554,0,0,0-.827-.736l-.337.383v-4.8a.549.549,0,0,0-.552-.552Z" transform="translate(-434.439 -323.631)" fill="#11182d"/>
      <path id="Path_5137" data-name="Path 5137" d="M461.044,338.134h-7.524v-9.286h15v9.286Zm-.031,1.3a.384.384,0,1,1,.352-.383.384.384,0,0,1-.352.383Zm8.228-.552v-9.99a.906.906,0,0,0-.9-.9H453.674a.906.906,0,0,0-.9.9v9.99a.988.988,0,0,0,.981.981H459.5a.477.477,0,0,1,.475.475v.138h-1.1a.69.69,0,0,0-.69.7v.4H463.8v-.4a.7.7,0,0,0-.7-.7h-1.1v-.138a.477.477,0,0,1,.475-.475h5.746a.98.98,0,0,0,1.027-.981Z" transform="translate(-433.923 -327.99)" fill="#11182d"/>
      <path id="Path_5138" data-name="Path 5138" d="M456.207,338.128h-15v-9.286h15v9.286Zm-7.493,1.3a.384.384,0,1,1,.352-.383.384.384,0,0,1-.352.383ZM456.038,328H441.374a.906.906,0,0,0-.9.9v9.99a.988.988,0,0,0,.981.981H447.2a.477.477,0,0,1,.475.475v.138h-1.1a.69.69,0,0,0-.69.7v.4H451.5v-.4a.7.7,0,0,0-.69-.7h-1.1v-.138a.477.477,0,0,1,.475-.475h5.746a.988.988,0,0,0,.981-.981V328.9a.853.853,0,0,0-.873-.9Z" transform="translate(-440.47 -327.985)" fill="#11182d"/>
      <path id="Path_5139" data-name="Path 5139" d="M453.984,331.5h6.8a.177.177,0,0,0,.184-.184v-2.023a.177.177,0,0,0-.184-.184h-6.8a.177.177,0,0,0-.184.184v2.023a.186.186,0,0,0,.184.184Z" transform="translate(-433.375 -327.394)" fill="#11182d"/>
      <path id="Path_5140" data-name="Path 5140" d="M464.807,331.14H458a.177.177,0,0,0-.184.184v2.544a.177.177,0,0,0,.184.184h6.8a.177.177,0,0,0,.184-.184v-2.544a.186.186,0,0,0-.184-.184Z" transform="translate(-431.235 -326.313)" fill="#11182d"/>
      <path id="Path_5141" data-name="Path 5141" d="M464.254,329.11h-5.118a.041.041,0,0,0-.046.046v.95a.041.041,0,0,0,.046.046h5.118a.041.041,0,0,0,.046-.046v-.95c.015-.015-.015-.046-.046-.046Z" transform="translate(-430.559 -327.394)" fill="#11182d"/>
      <path id="Path_5142" data-name="Path 5142" d="M464.254,329.98h-5.118a.041.041,0,0,0-.046.046v.95a.041.041,0,0,0,.046.046h5.118a.041.041,0,0,0,.046-.046v-.95c.015-.031-.015-.046-.046-.046Z" transform="translate(-430.559 -326.931)" fill="#11182d"/>
      <path id="Path_5143" data-name="Path 5143" d="M453.846,332.212h5.118a.041.041,0,0,0,.046-.046v-.95a.041.041,0,0,0-.046-.046h-5.118a.041.041,0,0,0-.046.046v.95a.049.049,0,0,0,.046.046Z" transform="translate(-433.375 -326.297)" fill="#11182d"/>
      <path id="Path_5144" data-name="Path 5144" d="M453.846,333.4h5.118a.041.041,0,0,0,.046-.046v-.95a.041.041,0,0,0-.046-.046h-5.118a.041.041,0,0,0-.046.046v.95a.069.069,0,0,0,.046.046Z" transform="translate(-433.375 -325.664)" fill="#11182d"/>
      <path id="Path_5145" data-name="Path 5145" d="M453.8,334.2h13.331v-.582H453.8Z" transform="translate(-433.375 -324.993)" fill="#11182d"/>
      <path id="Path_5146" data-name="Path 5146" d="M441.32,329.784h13.622v-.674H441.32Z" transform="translate(-440.018 -327.394)" fill="#11182d"/>
      <path id="Path_5147" data-name="Path 5147" d="M441.32,330.9h13.622v-.674H441.32Z" transform="translate(-440.018 -326.798)" fill="#11182d"/>
      <path id="Path_5148" data-name="Path 5148" d="M441.32,335.8h2.544V331.07H441.32Z" transform="translate(-440.018 -326.351)" fill="#11182d"/>
      <path id="Path_5149" data-name="Path 5149" d="M443.71,335.8h2.528V331.07H443.71Z" transform="translate(-438.745 -326.351)" fill="#11182d"/>
      <path id="Path_5150" data-name="Path 5150" d="M445.85,332.6h6.681V331.07H445.85Z" transform="translate(-437.606 -326.351)" fill="#11182d"/>
      <path id="Path_5151" data-name="Path 5151" d="M445.85,334.642h6.681V333.11H445.85Z" transform="translate(-437.606 -325.265)" fill="#11182d"/>
    </g>
  </g>
</svg>
